<?xml version="1.0" encoding="utf-8" standalone="no"?>
<!DOCTYPE svg PUBLIC "-//W3C//DTD SVG 1.1//EN"
  "http://www.w3.org/Graphics/SVG/1.1/DTD/svg11.dtd">
<svg xmlns:xlink="http://www.w3.org/1999/xlink" width="636.379453pt" height="319.32pt" viewBox="0 0 636.379453 319.32" xmlns="http://www.w3.org/2000/svg" version="1.1">
 <metadata>
  <rdf:RDF xmlns:dc="http://purl.org/dc/elements/1.1/" xmlns:cc="http://creativecommons.org/ns#" xmlns:rdf="http://www.w3.org/1999/02/22-rdf-syntax-ns#">
   <cc:Work>
    <dc:type rdf:resource="http://purl.org/dc/dcmitype/StillImage"/>
    <dc:date>2026-05-11T16:30:48.314027</dc:date>
    <dc:format>image/svg+xml</dc:format>
    <dc:creator>
     <cc:Agent>
      <dc:title>Matplotlib v3.9.2, https://matplotlib.org/</dc:title>
     </cc:Agent>
    </dc:creator>
   </cc:Work>
  </rdf:RDF>
 </metadata>
 <defs>
  <style type="text/css">*{stroke-linejoin: round; stroke-linecap: butt}</style>
 </defs>
 <g id="figure_1">
  <g id="patch_1">
   <path d="M 0 319.32 
L 636.379453 319.32 
L 636.379453 0 
L 0 0 
z
" style="fill: #ffffff"/>
  </g>
  <g id="axes_1">
   <g id="patch_2">
    <path d="M 160.459453 273.4968 
L 495.259453 273.4968 
Q 497.491453 273.4968 497.491453 271.464 
L 497.491453 52.938 
Q 497.491453 50.9052 495.259453 50.9052 
L 160.459453 50.9052 
Q 158.227453 50.9052 158.227453 52.938 
L 158.227453 271.464 
Q 158.227453 273.4968 160.459453 273.4968 
z
" clip-path="url(#pc640b64611)" style="fill: #fafafa; stroke: #90a4ae; stroke-width: 1.2; stroke-linejoin: miter"/>
   </g>
   <g id="patch_3">
    <path d="M 20.959453 99.6924 
L 143.719453 99.6924 
Q 144.835453 99.6924 144.835453 98.676 
L 144.835453 68.184 
Q 144.835453 67.1676 143.719453 67.1676 
L 20.959453 67.1676 
Q 19.843453 67.1676 19.843453 68.184 
L 19.843453 98.676 
Q 19.843453 99.6924 20.959453 99.6924 
z
" clip-path="url(#pc640b64611)" style="fill: #cfd8dc; stroke: #90a4ae; stroke-width: 0.8; stroke-linejoin: miter"/>
   </g>
   <g id="patch_4">
    <path d="M 20.959453 142.8894 
L 143.719453 142.8894 
Q 144.835453 142.8894 144.835453 141.873 
L 144.835453 111.381 
Q 144.835453 110.3646 143.719453 110.3646 
L 20.959453 110.3646 
Q 19.843453 110.3646 19.843453 111.381 
L 19.843453 141.873 
Q 19.843453 142.8894 20.959453 142.8894 
z
" clip-path="url(#pc640b64611)" style="fill: #cfd8dc; stroke: #90a4ae; stroke-width: 0.8; stroke-linejoin: miter"/>
   </g>
   <g id="patch_5">
    <path d="M 20.959453 186.0864 
L 143.719453 186.0864 
Q 144.835453 186.0864 144.835453 185.07 
L 144.835453 154.578 
Q 144.835453 153.5616 143.719453 153.5616 
L 20.959453 153.5616 
Q 19.843453 153.5616 19.843453 154.578 
L 19.843453 185.07 
Q 19.843453 186.0864 20.959453 186.0864 
z
" clip-path="url(#pc640b64611)" style="fill: #cfd8dc; stroke: #90a4ae; stroke-width: 0.8; stroke-linejoin: miter"/>
   </g>
   <g id="patch_6">
    <path d="M 20.959453 229.2834 
L 143.719453 229.2834 
Q 144.835453 229.2834 144.835453 228.267 
L 144.835453 197.775 
Q 144.835453 196.7586 143.719453 196.7586 
L 20.959453 196.7586 
Q 19.843453 196.7586 19.843453 197.775 
L 19.843453 228.267 
Q 19.843453 229.2834 20.959453 229.2834 
z
" clip-path="url(#pc640b64611)" style="fill: #cfd8dc; stroke: #90a4ae; stroke-width: 0.8; stroke-linejoin: miter"/>
   </g>
   <g id="patch_7">
    <path d="M 20.959453 272.4804 
L 143.719453 272.4804 
Q 144.835453 272.4804 144.835453 271.464 
L 144.835453 240.972 
Q 144.835453 239.9556 143.719453 239.9556 
L 20.959453 239.9556 
Q 19.843453 239.9556 19.843453 240.972 
L 19.843453 271.464 
Q 19.843453 272.4804 20.959453 272.4804 
z
" clip-path="url(#pc640b64611)" style="fill: #cfd8dc; stroke: #90a4ae; stroke-width: 0.8; stroke-linejoin: miter"/>
   </g>
   <g id="patch_8">
    <path d="M 177.199453 132.7254 
L 272.059453 132.7254 
Q 273.175453 132.7254 273.175453 131.709 
L 273.175453 85.971 
Q 273.175453 84.9546 272.059453 84.9546 
L 177.199453 84.9546 
Q 176.083453 84.9546 176.083453 85.971 
L 176.083453 131.709 
Q 176.083453 132.7254 177.199453 132.7254 
z
" clip-path="url(#pc640b64611)" style="fill: #ef9a9a; stroke: #546e7a; stroke-width: 0.8; stroke-linejoin: miter"/>
   </g>
   <g id="patch_9">
    <path d="M 177.199453 198.7914 
L 272.059453 198.7914 
Q 273.175453 198.7914 273.175453 197.775 
L 273.175453 152.037 
Q 273.175453 151.0206 272.059453 151.0206 
L 177.199453 151.0206 
Q 176.083453 151.0206 176.083453 152.037 
L 176.083453 197.775 
Q 176.083453 198.7914 177.199453 198.7914 
z
" clip-path="url(#pc640b64611)" style="fill: #a5d6a7; stroke: #546e7a; stroke-width: 0.8; stroke-linejoin: miter"/>
   </g>
   <g id="patch_10">
    <path d="M 177.199453 264.8574 
L 272.059453 264.8574 
Q 273.175453 264.8574 273.175453 263.841 
L 273.175453 218.103 
Q 273.175453 217.0866 272.059453 217.0866 
L 177.199453 217.0866 
Q 176.083453 217.0866 176.083453 218.103 
L 176.083453 263.841 
Q 176.083453 264.8574 177.199453 264.8574 
z
" clip-path="url(#pc640b64611)" style="fill: #90caf9; stroke: #546e7a; stroke-width: 0.8; stroke-linejoin: miter"/>
   </g>
   <g id="patch_11">
    <path d="M 316.699453 198.7914 
L 405.979453 198.7914 
Q 407.095453 198.7914 407.095453 197.775 
L 407.095453 152.037 
Q 407.095453 151.0206 405.979453 151.0206 
L 316.699453 151.0206 
Q 315.583453 151.0206 315.583453 152.037 
L 315.583453 197.775 
Q 315.583453 198.7914 316.699453 198.7914 
z
" clip-path="url(#pc640b64611)" style="fill: #ffe082; stroke: #546e7a; stroke-width: 0.8; stroke-linejoin: miter"/>
   </g>
   <g id="patch_12">
    <path d="M 428.299453 198.7914 
L 484.099453 198.7914 
Q 485.215453 198.7914 485.215453 197.775 
L 485.215453 152.037 
Q 485.215453 151.0206 484.099453 151.0206 
L 428.299453 151.0206 
Q 427.183453 151.0206 427.183453 152.037 
L 427.183453 197.775 
Q 427.183453 198.7914 428.299453 198.7914 
z
" clip-path="url(#pc640b64611)" style="fill: #ef9a9a; stroke: #546e7a; stroke-width: 0.8; stroke-linejoin: miter"/>
   </g>
   <g id="patch_13">
    <path d="M 517.579453 191.1684 
L 618.019453 191.1684 
Q 619.135453 191.1684 619.135453 190.152 
L 619.135453 159.66 
Q 619.135453 158.6436 618.019453 158.6436 
L 517.579453 158.6436 
Q 516.463453 158.6436 516.463453 159.66 
L 516.463453 190.152 
Q 516.463453 191.1684 517.579453 191.1684 
z
" clip-path="url(#pc640b64611)" style="fill: #fff9c4; stroke: #37474f; stroke-width: 1.2; stroke-linejoin: miter"/>
   </g>
   <g id="patch_14">
    <path d="M 517.579453 252.1524 
L 618.019453 252.1524 
Q 619.135453 252.1524 619.135453 251.136 
L 619.135453 215.562 
Q 619.135453 214.5456 618.019453 214.5456 
L 517.579453 214.5456 
Q 516.463453 214.5456 516.463453 215.562 
L 516.463453 251.136 
Q 516.463453 252.1524 517.579453 252.1524 
z
" clip-path="url(#pc640b64611)" style="fill: #eceff1; stroke: #37474f; stroke-linejoin: miter"/>
   </g>
   <g id="text_1">
    <!-- rewardcap layer -->
    <g style="fill: #37474f" transform="translate(273.137578 42.725625) scale(0.12 -0.12)">
     <defs>
      <path id="DejaVuSans-Bold-72" d="M 3138 2547 
Q 2991 2616 2845 2648 
Q 2700 2681 2553 2681 
Q 2122 2681 1889 2404 
Q 1656 2128 1656 1613 
L 1656 0 
L 538 0 
L 538 3500 
L 1656 3500 
L 1656 2925 
Q 1872 3269 2151 3426 
Q 2431 3584 2822 3584 
Q 2878 3584 2943 3579 
Q 3009 3575 3134 3559 
L 3138 2547 
z
" transform="scale(0.015625)"/>
      <path id="DejaVuSans-Bold-65" d="M 4031 1759 
L 4031 1441 
L 1416 1441 
Q 1456 1047 1700 850 
Q 1944 653 2381 653 
Q 2734 653 3104 758 
Q 3475 863 3866 1075 
L 3866 213 
Q 3469 63 3072 -14 
Q 2675 -91 2278 -91 
Q 1328 -91 801 392 
Q 275 875 275 1747 
Q 275 2603 792 3093 
Q 1309 3584 2216 3584 
Q 3041 3584 3536 3087 
Q 4031 2591 4031 1759 
z
M 2881 2131 
Q 2881 2450 2695 2645 
Q 2509 2841 2209 2841 
Q 1884 2841 1681 2658 
Q 1478 2475 1428 2131 
L 2881 2131 
z
" transform="scale(0.015625)"/>
      <path id="DejaVuSans-Bold-77" d="M 225 3500 
L 1313 3500 
L 1900 1088 
L 2491 3500 
L 3425 3500 
L 4013 1113 
L 4603 3500 
L 5691 3500 
L 4769 0 
L 3547 0 
L 2956 2406 
L 2369 0 
L 1147 0 
L 225 3500 
z
" transform="scale(0.015625)"/>
      <path id="DejaVuSans-Bold-61" d="M 2106 1575 
Q 1756 1575 1579 1456 
Q 1403 1338 1403 1106 
Q 1403 894 1545 773 
Q 1688 653 1941 653 
Q 2256 653 2472 879 
Q 2688 1106 2688 1447 
L 2688 1575 
L 2106 1575 
z
M 3816 1997 
L 3816 0 
L 2688 0 
L 2688 519 
Q 2463 200 2181 54 
Q 1900 -91 1497 -91 
Q 953 -91 614 226 
Q 275 544 275 1050 
Q 275 1666 698 1953 
Q 1122 2241 2028 2241 
L 2688 2241 
L 2688 2328 
Q 2688 2594 2478 2717 
Q 2269 2841 1825 2841 
Q 1466 2841 1156 2769 
Q 847 2697 581 2553 
L 581 3406 
Q 941 3494 1303 3539 
Q 1666 3584 2028 3584 
Q 2975 3584 3395 3211 
Q 3816 2838 3816 1997 
z
" transform="scale(0.015625)"/>
      <path id="DejaVuSans-Bold-64" d="M 2919 2988 
L 2919 4863 
L 4044 4863 
L 4044 0 
L 2919 0 
L 2919 506 
Q 2688 197 2409 53 
Q 2131 -91 1766 -91 
Q 1119 -91 703 423 
Q 288 938 288 1747 
Q 288 2556 703 3070 
Q 1119 3584 1766 3584 
Q 2128 3584 2408 3439 
Q 2688 3294 2919 2988 
z
M 2181 722 
Q 2541 722 2730 984 
Q 2919 1247 2919 1747 
Q 2919 2247 2730 2509 
Q 2541 2772 2181 2772 
Q 1825 2772 1636 2509 
Q 1447 2247 1447 1747 
Q 1447 1247 1636 984 
Q 1825 722 2181 722 
z
" transform="scale(0.015625)"/>
      <path id="DejaVuSans-Bold-63" d="M 3366 3391 
L 3366 2478 
Q 3138 2634 2908 2709 
Q 2678 2784 2431 2784 
Q 1963 2784 1702 2511 
Q 1441 2238 1441 1747 
Q 1441 1256 1702 982 
Q 1963 709 2431 709 
Q 2694 709 2930 787 
Q 3166 866 3366 1019 
L 3366 103 
Q 3103 6 2833 -42 
Q 2563 -91 2291 -91 
Q 1344 -91 809 395 
Q 275 881 275 1747 
Q 275 2613 809 3098 
Q 1344 3584 2291 3584 
Q 2566 3584 2833 3536 
Q 3100 3488 3366 3391 
z
" transform="scale(0.015625)"/>
      <path id="DejaVuSans-Bold-70" d="M 1656 506 
L 1656 -1331 
L 538 -1331 
L 538 3500 
L 1656 3500 
L 1656 2988 
Q 1888 3294 2169 3439 
Q 2450 3584 2816 3584 
Q 3463 3584 3878 3070 
Q 4294 2556 4294 1747 
Q 4294 938 3878 423 
Q 3463 -91 2816 -91 
Q 2450 -91 2169 54 
Q 1888 200 1656 506 
z
M 2400 2772 
Q 2041 2772 1848 2508 
Q 1656 2244 1656 1747 
Q 1656 1250 1848 986 
Q 2041 722 2400 722 
Q 2759 722 2948 984 
Q 3138 1247 3138 1747 
Q 3138 2247 2948 2509 
Q 2759 2772 2400 2772 
z
" transform="scale(0.015625)"/>
      <path id="DejaVuSans-Bold-20" transform="scale(0.015625)"/>
      <path id="DejaVuSans-Bold-6c" d="M 538 4863 
L 1656 4863 
L 1656 0 
L 538 0 
L 538 4863 
z
" transform="scale(0.015625)"/>
      <path id="DejaVuSans-Bold-79" d="M 78 3500 
L 1197 3500 
L 2138 1125 
L 2938 3500 
L 4056 3500 
L 2584 -331 
Q 2363 -916 2067 -1148 
Q 1772 -1381 1288 -1381 
L 641 -1381 
L 641 -647 
L 991 -647 
Q 1275 -647 1404 -556 
Q 1534 -466 1606 -231 
L 1638 -134 
L 78 3500 
z
" transform="scale(0.015625)"/>
     </defs>
     <use xlink:href="#DejaVuSans-Bold-72"/>
     <use xlink:href="#DejaVuSans-Bold-65" x="49.316406"/>
     <use xlink:href="#DejaVuSans-Bold-77" x="117.138672"/>
     <use xlink:href="#DejaVuSans-Bold-61" x="209.521484"/>
     <use xlink:href="#DejaVuSans-Bold-72" x="277.001953"/>
     <use xlink:href="#DejaVuSans-Bold-64" x="326.318359"/>
     <use xlink:href="#DejaVuSans-Bold-63" x="397.900391"/>
     <use xlink:href="#DejaVuSans-Bold-61" x="457.177734"/>
     <use xlink:href="#DejaVuSans-Bold-70" x="524.658203"/>
     <use xlink:href="#DejaVuSans-Bold-20" x="596.240234"/>
     <use xlink:href="#DejaVuSans-Bold-6c" x="631.054688"/>
     <use xlink:href="#DejaVuSans-Bold-61" x="665.332031"/>
     <use xlink:href="#DejaVuSans-Bold-79" x="729.6875"/>
     <use xlink:href="#DejaVuSans-Bold-65" x="794.873047"/>
     <use xlink:href="#DejaVuSans-Bold-72" x="862.695312"/>
    </g>
   </g>
   <g id="text_2">
    <!-- format check -->
    <g style="fill: #212121" transform="translate(52.720312 85.913438) scale(0.09 -0.09)">
     <defs>
      <path id="DejaVuSans-66" d="M 2375 4863 
L 2375 4384 
L 1825 4384 
Q 1516 4384 1395 4259 
Q 1275 4134 1275 3809 
L 1275 3500 
L 2222 3500 
L 2222 3053 
L 1275 3053 
L 1275 0 
L 697 0 
L 697 3053 
L 147 3053 
L 147 3500 
L 697 3500 
L 697 3744 
Q 697 4328 969 4595 
Q 1241 4863 1831 4863 
L 2375 4863 
z
" transform="scale(0.015625)"/>
      <path id="DejaVuSans-6f" d="M 1959 3097 
Q 1497 3097 1228 2736 
Q 959 2375 959 1747 
Q 959 1119 1226 758 
Q 1494 397 1959 397 
Q 2419 397 2687 759 
Q 2956 1122 2956 1747 
Q 2956 2369 2687 2733 
Q 2419 3097 1959 3097 
z
M 1959 3584 
Q 2709 3584 3137 3096 
Q 3566 2609 3566 1747 
Q 3566 888 3137 398 
Q 2709 -91 1959 -91 
Q 1206 -91 779 398 
Q 353 888 353 1747 
Q 353 2609 779 3096 
Q 1206 3584 1959 3584 
z
" transform="scale(0.015625)"/>
      <path id="DejaVuSans-72" d="M 2631 2963 
Q 2534 3019 2420 3045 
Q 2306 3072 2169 3072 
Q 1681 3072 1420 2755 
Q 1159 2438 1159 1844 
L 1159 0 
L 581 0 
L 581 3500 
L 1159 3500 
L 1159 2956 
Q 1341 3275 1631 3429 
Q 1922 3584 2338 3584 
Q 2397 3584 2469 3576 
Q 2541 3569 2628 3553 
L 2631 2963 
z
" transform="scale(0.015625)"/>
      <path id="DejaVuSans-6d" d="M 3328 2828 
Q 3544 3216 3844 3400 
Q 4144 3584 4550 3584 
Q 5097 3584 5394 3201 
Q 5691 2819 5691 2113 
L 5691 0 
L 5113 0 
L 5113 2094 
Q 5113 2597 4934 2840 
Q 4756 3084 4391 3084 
Q 3944 3084 3684 2787 
Q 3425 2491 3425 1978 
L 3425 0 
L 2847 0 
L 2847 2094 
Q 2847 2600 2669 2842 
Q 2491 3084 2119 3084 
Q 1678 3084 1418 2786 
Q 1159 2488 1159 1978 
L 1159 0 
L 581 0 
L 581 3500 
L 1159 3500 
L 1159 2956 
Q 1356 3278 1631 3431 
Q 1906 3584 2284 3584 
Q 2666 3584 2933 3390 
Q 3200 3197 3328 2828 
z
" transform="scale(0.015625)"/>
      <path id="DejaVuSans-61" d="M 2194 1759 
Q 1497 1759 1228 1600 
Q 959 1441 959 1056 
Q 959 750 1161 570 
Q 1363 391 1709 391 
Q 2188 391 2477 730 
Q 2766 1069 2766 1631 
L 2766 1759 
L 2194 1759 
z
M 3341 1997 
L 3341 0 
L 2766 0 
L 2766 531 
Q 2569 213 2275 61 
Q 1981 -91 1556 -91 
Q 1019 -91 701 211 
Q 384 513 384 1019 
Q 384 1609 779 1909 
Q 1175 2209 1959 2209 
L 2766 2209 
L 2766 2266 
Q 2766 2663 2505 2880 
Q 2244 3097 1772 3097 
Q 1472 3097 1187 3025 
Q 903 2953 641 2809 
L 641 3341 
Q 956 3463 1253 3523 
Q 1550 3584 1831 3584 
Q 2591 3584 2966 3190 
Q 3341 2797 3341 1997 
z
" transform="scale(0.015625)"/>
      <path id="DejaVuSans-74" d="M 1172 4494 
L 1172 3500 
L 2356 3500 
L 2356 3053 
L 1172 3053 
L 1172 1153 
Q 1172 725 1289 603 
Q 1406 481 1766 481 
L 2356 481 
L 2356 0 
L 1766 0 
Q 1100 0 847 248 
Q 594 497 594 1153 
L 594 3053 
L 172 3053 
L 172 3500 
L 594 3500 
L 594 4494 
L 1172 4494 
z
" transform="scale(0.015625)"/>
      <path id="DejaVuSans-20" transform="scale(0.015625)"/>
      <path id="DejaVuSans-63" d="M 3122 3366 
L 3122 2828 
Q 2878 2963 2633 3030 
Q 2388 3097 2138 3097 
Q 1578 3097 1268 2742 
Q 959 2388 959 1747 
Q 959 1106 1268 751 
Q 1578 397 2138 397 
Q 2388 397 2633 464 
Q 2878 531 3122 666 
L 3122 134 
Q 2881 22 2623 -34 
Q 2366 -91 2075 -91 
Q 1284 -91 818 406 
Q 353 903 353 1747 
Q 353 2603 823 3093 
Q 1294 3584 2113 3584 
Q 2378 3584 2631 3529 
Q 2884 3475 3122 3366 
z
" transform="scale(0.015625)"/>
      <path id="DejaVuSans-68" d="M 3513 2113 
L 3513 0 
L 2938 0 
L 2938 2094 
Q 2938 2591 2744 2837 
Q 2550 3084 2163 3084 
Q 1697 3084 1428 2787 
Q 1159 2491 1159 1978 
L 1159 0 
L 581 0 
L 581 4863 
L 1159 4863 
L 1159 2956 
Q 1366 3272 1645 3428 
Q 1925 3584 2291 3584 
Q 2894 3584 3203 3211 
Q 3513 2838 3513 2113 
z
" transform="scale(0.015625)"/>
      <path id="DejaVuSans-65" d="M 3597 1894 
L 3597 1613 
L 953 1613 
Q 991 1019 1311 708 
Q 1631 397 2203 397 
Q 2534 397 2845 478 
Q 3156 559 3463 722 
L 3463 178 
Q 3153 47 2828 -22 
Q 2503 -91 2169 -91 
Q 1331 -91 842 396 
Q 353 884 353 1716 
Q 353 2575 817 3079 
Q 1281 3584 2069 3584 
Q 2775 3584 3186 3129 
Q 3597 2675 3597 1894 
z
M 3022 2063 
Q 3016 2534 2758 2815 
Q 2500 3097 2075 3097 
Q 1594 3097 1305 2825 
Q 1016 2553 972 2059 
L 3022 2063 
z
" transform="scale(0.015625)"/>
      <path id="DejaVuSans-6b" d="M 581 4863 
L 1159 4863 
L 1159 1991 
L 2875 3500 
L 3609 3500 
L 1753 1863 
L 3688 0 
L 2938 0 
L 1159 1709 
L 1159 0 
L 581 0 
L 581 4863 
z
" transform="scale(0.015625)"/>
     </defs>
     <use xlink:href="#DejaVuSans-66"/>
     <use xlink:href="#DejaVuSans-6f" x="35.205078"/>
     <use xlink:href="#DejaVuSans-72" x="96.386719"/>
     <use xlink:href="#DejaVuSans-6d" x="135.75"/>
     <use xlink:href="#DejaVuSans-61" x="233.162109"/>
     <use xlink:href="#DejaVuSans-74" x="294.441406"/>
     <use xlink:href="#DejaVuSans-20" x="333.650391"/>
     <use xlink:href="#DejaVuSans-63" x="365.4375"/>
     <use xlink:href="#DejaVuSans-68" x="420.417969"/>
     <use xlink:href="#DejaVuSans-65" x="483.796875"/>
     <use xlink:href="#DejaVuSans-63" x="545.320312"/>
     <use xlink:href="#DejaVuSans-6b" x="600.300781"/>
    </g>
   </g>
   <g id="patch_15">
    <path d="M 145.722041 83.43 
Q 154.881245 83.43 162.922416 83.43 
" style="fill: none; stroke: #607d8b; stroke-linecap: round"/>
    <path d="M 158.922416 81.43 
L 162.922416 83.43 
L 158.922416 85.43 
" style="fill: none; stroke: #607d8b; stroke-linecap: round"/>
   </g>
   <g id="text_3">
    <!-- exact-match correctness -->
    <g style="fill: #212121" transform="translate(26.640703 129.110438) scale(0.09 -0.09)">
     <defs>
      <path id="DejaVuSans-78" d="M 3513 3500 
L 2247 1797 
L 3578 0 
L 2900 0 
L 1881 1375 
L 863 0 
L 184 0 
L 1544 1831 
L 300 3500 
L 978 3500 
L 1906 2253 
L 2834 3500 
L 3513 3500 
z
" transform="scale(0.015625)"/>
      <path id="DejaVuSans-2d" d="M 313 2009 
L 1997 2009 
L 1997 1497 
L 313 1497 
L 313 2009 
z
" transform="scale(0.015625)"/>
      <path id="DejaVuSans-6e" d="M 3513 2113 
L 3513 0 
L 2938 0 
L 2938 2094 
Q 2938 2591 2744 2837 
Q 2550 3084 2163 3084 
Q 1697 3084 1428 2787 
Q 1159 2491 1159 1978 
L 1159 0 
L 581 0 
L 581 3500 
L 1159 3500 
L 1159 2956 
Q 1366 3272 1645 3428 
Q 1925 3584 2291 3584 
Q 2894 3584 3203 3211 
Q 3513 2838 3513 2113 
z
" transform="scale(0.015625)"/>
      <path id="DejaVuSans-73" d="M 2834 3397 
L 2834 2853 
Q 2591 2978 2328 3040 
Q 2066 3103 1784 3103 
Q 1356 3103 1142 2972 
Q 928 2841 928 2578 
Q 928 2378 1081 2264 
Q 1234 2150 1697 2047 
L 1894 2003 
Q 2506 1872 2764 1633 
Q 3022 1394 3022 966 
Q 3022 478 2636 193 
Q 2250 -91 1575 -91 
Q 1294 -91 989 -36 
Q 684 19 347 128 
L 347 722 
Q 666 556 975 473 
Q 1284 391 1588 391 
Q 1994 391 2212 530 
Q 2431 669 2431 922 
Q 2431 1156 2273 1281 
Q 2116 1406 1581 1522 
L 1381 1569 
Q 847 1681 609 1914 
Q 372 2147 372 2553 
Q 372 3047 722 3315 
Q 1072 3584 1716 3584 
Q 2034 3584 2315 3537 
Q 2597 3491 2834 3397 
z
" transform="scale(0.015625)"/>
     </defs>
     <use xlink:href="#DejaVuSans-65"/>
     <use xlink:href="#DejaVuSans-78" x="59.773438"/>
     <use xlink:href="#DejaVuSans-61" x="118.953125"/>
     <use xlink:href="#DejaVuSans-63" x="180.232422"/>
     <use xlink:href="#DejaVuSans-74" x="235.212891"/>
     <use xlink:href="#DejaVuSans-2d" x="274.421875"/>
     <use xlink:href="#DejaVuSans-6d" x="310.505859"/>
     <use xlink:href="#DejaVuSans-61" x="407.917969"/>
     <use xlink:href="#DejaVuSans-74" x="469.197266"/>
     <use xlink:href="#DejaVuSans-63" x="508.40625"/>
     <use xlink:href="#DejaVuSans-68" x="563.386719"/>
     <use xlink:href="#DejaVuSans-20" x="626.765625"/>
     <use xlink:href="#DejaVuSans-63" x="658.552734"/>
     <use xlink:href="#DejaVuSans-6f" x="713.533203"/>
     <use xlink:href="#DejaVuSans-72" x="774.714844"/>
     <use xlink:href="#DejaVuSans-72" x="814.078125"/>
     <use xlink:href="#DejaVuSans-65" x="852.941406"/>
     <use xlink:href="#DejaVuSans-63" x="914.464844"/>
     <use xlink:href="#DejaVuSans-74" x="969.445312"/>
     <use xlink:href="#DejaVuSans-6e" x="1008.654297"/>
     <use xlink:href="#DejaVuSans-65" x="1072.033203"/>
     <use xlink:href="#DejaVuSans-73" x="1133.556641"/>
     <use xlink:href="#DejaVuSans-73" x="1185.65625"/>
    </g>
   </g>
   <g id="patch_16">
    <path d="M 145.722041 126.627 
Q 154.881245 126.627 162.922416 126.627 
" style="fill: none; stroke: #607d8b; stroke-linecap: round"/>
    <path d="M 158.922416 124.627 
L 162.922416 126.627 
L 158.922416 128.627 
" style="fill: none; stroke: #607d8b; stroke-linecap: round"/>
   </g>
   <g id="text_4">
    <!-- LLM judge (CoT-aware) -->
    <g style="fill: #212121" transform="translate(30.915703 172.307438) scale(0.09 -0.09)">
     <defs>
      <path id="DejaVuSans-4c" d="M 628 4666 
L 1259 4666 
L 1259 531 
L 3531 531 
L 3531 0 
L 628 0 
L 628 4666 
z
" transform="scale(0.015625)"/>
      <path id="DejaVuSans-4d" d="M 628 4666 
L 1569 4666 
L 2759 1491 
L 3956 4666 
L 4897 4666 
L 4897 0 
L 4281 0 
L 4281 4097 
L 3078 897 
L 2444 897 
L 1241 4097 
L 1241 0 
L 628 0 
L 628 4666 
z
" transform="scale(0.015625)"/>
      <path id="DejaVuSans-6a" d="M 603 3500 
L 1178 3500 
L 1178 -63 
Q 1178 -731 923 -1031 
Q 669 -1331 103 -1331 
L -116 -1331 
L -116 -844 
L 38 -844 
Q 366 -844 484 -692 
Q 603 -541 603 -63 
L 603 3500 
z
M 603 4863 
L 1178 4863 
L 1178 4134 
L 603 4134 
L 603 4863 
z
" transform="scale(0.015625)"/>
      <path id="DejaVuSans-75" d="M 544 1381 
L 544 3500 
L 1119 3500 
L 1119 1403 
Q 1119 906 1312 657 
Q 1506 409 1894 409 
Q 2359 409 2629 706 
Q 2900 1003 2900 1516 
L 2900 3500 
L 3475 3500 
L 3475 0 
L 2900 0 
L 2900 538 
Q 2691 219 2414 64 
Q 2138 -91 1772 -91 
Q 1169 -91 856 284 
Q 544 659 544 1381 
z
M 1991 3584 
L 1991 3584 
z
" transform="scale(0.015625)"/>
      <path id="DejaVuSans-64" d="M 2906 2969 
L 2906 4863 
L 3481 4863 
L 3481 0 
L 2906 0 
L 2906 525 
Q 2725 213 2448 61 
Q 2172 -91 1784 -91 
Q 1150 -91 751 415 
Q 353 922 353 1747 
Q 353 2572 751 3078 
Q 1150 3584 1784 3584 
Q 2172 3584 2448 3432 
Q 2725 3281 2906 2969 
z
M 947 1747 
Q 947 1113 1208 752 
Q 1469 391 1925 391 
Q 2381 391 2643 752 
Q 2906 1113 2906 1747 
Q 2906 2381 2643 2742 
Q 2381 3103 1925 3103 
Q 1469 3103 1208 2742 
Q 947 2381 947 1747 
z
" transform="scale(0.015625)"/>
      <path id="DejaVuSans-67" d="M 2906 1791 
Q 2906 2416 2648 2759 
Q 2391 3103 1925 3103 
Q 1463 3103 1205 2759 
Q 947 2416 947 1791 
Q 947 1169 1205 825 
Q 1463 481 1925 481 
Q 2391 481 2648 825 
Q 2906 1169 2906 1791 
z
M 3481 434 
Q 3481 -459 3084 -895 
Q 2688 -1331 1869 -1331 
Q 1566 -1331 1297 -1286 
Q 1028 -1241 775 -1147 
L 775 -588 
Q 1028 -725 1275 -790 
Q 1522 -856 1778 -856 
Q 2344 -856 2625 -561 
Q 2906 -266 2906 331 
L 2906 616 
Q 2728 306 2450 153 
Q 2172 0 1784 0 
Q 1141 0 747 490 
Q 353 981 353 1791 
Q 353 2603 747 3093 
Q 1141 3584 1784 3584 
Q 2172 3584 2450 3431 
Q 2728 3278 2906 2969 
L 2906 3500 
L 3481 3500 
L 3481 434 
z
" transform="scale(0.015625)"/>
      <path id="DejaVuSans-28" d="M 1984 4856 
Q 1566 4138 1362 3434 
Q 1159 2731 1159 2009 
Q 1159 1288 1364 580 
Q 1569 -128 1984 -844 
L 1484 -844 
Q 1016 -109 783 600 
Q 550 1309 550 2009 
Q 550 2706 781 3412 
Q 1013 4119 1484 4856 
L 1984 4856 
z
" transform="scale(0.015625)"/>
      <path id="DejaVuSans-43" d="M 4122 4306 
L 4122 3641 
Q 3803 3938 3442 4084 
Q 3081 4231 2675 4231 
Q 1875 4231 1450 3742 
Q 1025 3253 1025 2328 
Q 1025 1406 1450 917 
Q 1875 428 2675 428 
Q 3081 428 3442 575 
Q 3803 722 4122 1019 
L 4122 359 
Q 3791 134 3420 21 
Q 3050 -91 2638 -91 
Q 1578 -91 968 557 
Q 359 1206 359 2328 
Q 359 3453 968 4101 
Q 1578 4750 2638 4750 
Q 3056 4750 3426 4639 
Q 3797 4528 4122 4306 
z
" transform="scale(0.015625)"/>
      <path id="DejaVuSans-54" d="M -19 4666 
L 3928 4666 
L 3928 4134 
L 2272 4134 
L 2272 0 
L 1638 0 
L 1638 4134 
L -19 4134 
L -19 4666 
z
" transform="scale(0.015625)"/>
      <path id="DejaVuSans-77" d="M 269 3500 
L 844 3500 
L 1563 769 
L 2278 3500 
L 2956 3500 
L 3675 769 
L 4391 3500 
L 4966 3500 
L 4050 0 
L 3372 0 
L 2619 2869 
L 1863 0 
L 1184 0 
L 269 3500 
z
" transform="scale(0.015625)"/>
      <path id="DejaVuSans-29" d="M 513 4856 
L 1013 4856 
Q 1481 4119 1714 3412 
Q 1947 2706 1947 2009 
Q 1947 1309 1714 600 
Q 1481 -109 1013 -844 
L 513 -844 
Q 928 -128 1133 580 
Q 1338 1288 1338 2009 
Q 1338 2731 1133 3434 
Q 928 4138 513 4856 
z
" transform="scale(0.015625)"/>
     </defs>
     <use xlink:href="#DejaVuSans-4c"/>
     <use xlink:href="#DejaVuSans-4c" x="55.712891"/>
     <use xlink:href="#DejaVuSans-4d" x="111.425781"/>
     <use xlink:href="#DejaVuSans-20" x="197.705078"/>
     <use xlink:href="#DejaVuSans-6a" x="229.492188"/>
     <use xlink:href="#DejaVuSans-75" x="257.275391"/>
     <use xlink:href="#DejaVuSans-64" x="320.654297"/>
     <use xlink:href="#DejaVuSans-67" x="384.130859"/>
     <use xlink:href="#DejaVuSans-65" x="447.607422"/>
     <use xlink:href="#DejaVuSans-20" x="509.130859"/>
     <use xlink:href="#DejaVuSans-28" x="540.917969"/>
     <use xlink:href="#DejaVuSans-43" x="579.931641"/>
     <use xlink:href="#DejaVuSans-6f" x="649.755859"/>
     <use xlink:href="#DejaVuSans-54" x="710.9375"/>
     <use xlink:href="#DejaVuSans-2d" x="762.896484"/>
     <use xlink:href="#DejaVuSans-61" x="798.980469"/>
     <use xlink:href="#DejaVuSans-77" x="860.259766"/>
     <use xlink:href="#DejaVuSans-61" x="942.046875"/>
     <use xlink:href="#DejaVuSans-72" x="1003.326172"/>
     <use xlink:href="#DejaVuSans-65" x="1042.189453"/>
     <use xlink:href="#DejaVuSans-29" x="1103.712891"/>
    </g>
   </g>
   <g id="patch_17">
    <path d="M 145.722041 169.824 
Q 154.881245 169.824 162.922416 169.824 
" style="fill: none; stroke: #607d8b; stroke-linecap: round"/>
    <path d="M 158.922416 167.824 
L 162.922416 169.824 
L 158.922416 171.824 
" style="fill: none; stroke: #607d8b; stroke-linecap: round"/>
   </g>
   <g id="text_5">
    <!-- LLM judge (CoT-blind companion) -->
    <g style="fill: #212121" transform="translate(7.2 215.504437) scale(0.09 -0.09)">
     <defs>
      <path id="DejaVuSans-62" d="M 3116 1747 
Q 3116 2381 2855 2742 
Q 2594 3103 2138 3103 
Q 1681 3103 1420 2742 
Q 1159 2381 1159 1747 
Q 1159 1113 1420 752 
Q 1681 391 2138 391 
Q 2594 391 2855 752 
Q 3116 1113 3116 1747 
z
M 1159 2969 
Q 1341 3281 1617 3432 
Q 1894 3584 2278 3584 
Q 2916 3584 3314 3078 
Q 3713 2572 3713 1747 
Q 3713 922 3314 415 
Q 2916 -91 2278 -91 
Q 1894 -91 1617 61 
Q 1341 213 1159 525 
L 1159 0 
L 581 0 
L 581 4863 
L 1159 4863 
L 1159 2969 
z
" transform="scale(0.015625)"/>
      <path id="DejaVuSans-6c" d="M 603 4863 
L 1178 4863 
L 1178 0 
L 603 0 
L 603 4863 
z
" transform="scale(0.015625)"/>
      <path id="DejaVuSans-69" d="M 603 3500 
L 1178 3500 
L 1178 0 
L 603 0 
L 603 3500 
z
M 603 4863 
L 1178 4863 
L 1178 4134 
L 603 4134 
L 603 4863 
z
" transform="scale(0.015625)"/>
      <path id="DejaVuSans-70" d="M 1159 525 
L 1159 -1331 
L 581 -1331 
L 581 3500 
L 1159 3500 
L 1159 2969 
Q 1341 3281 1617 3432 
Q 1894 3584 2278 3584 
Q 2916 3584 3314 3078 
Q 3713 2572 3713 1747 
Q 3713 922 3314 415 
Q 2916 -91 2278 -91 
Q 1894 -91 1617 61 
Q 1341 213 1159 525 
z
M 3116 1747 
Q 3116 2381 2855 2742 
Q 2594 3103 2138 3103 
Q 1681 3103 1420 2742 
Q 1159 2381 1159 1747 
Q 1159 1113 1420 752 
Q 1681 391 2138 391 
Q 2594 391 2855 752 
Q 3116 1113 3116 1747 
z
" transform="scale(0.015625)"/>
     </defs>
     <use xlink:href="#DejaVuSans-4c"/>
     <use xlink:href="#DejaVuSans-4c" x="55.712891"/>
     <use xlink:href="#DejaVuSans-4d" x="111.425781"/>
     <use xlink:href="#DejaVuSans-20" x="197.705078"/>
     <use xlink:href="#DejaVuSans-6a" x="229.492188"/>
     <use xlink:href="#DejaVuSans-75" x="257.275391"/>
     <use xlink:href="#DejaVuSans-64" x="320.654297"/>
     <use xlink:href="#DejaVuSans-67" x="384.130859"/>
     <use xlink:href="#DejaVuSans-65" x="447.607422"/>
     <use xlink:href="#DejaVuSans-20" x="509.130859"/>
     <use xlink:href="#DejaVuSans-28" x="540.917969"/>
     <use xlink:href="#DejaVuSans-43" x="579.931641"/>
     <use xlink:href="#DejaVuSans-6f" x="649.755859"/>
     <use xlink:href="#DejaVuSans-54" x="710.9375"/>
     <use xlink:href="#DejaVuSans-2d" x="762.896484"/>
     <use xlink:href="#DejaVuSans-62" x="798.980469"/>
     <use xlink:href="#DejaVuSans-6c" x="862.457031"/>
     <use xlink:href="#DejaVuSans-69" x="890.240234"/>
     <use xlink:href="#DejaVuSans-6e" x="918.023438"/>
     <use xlink:href="#DejaVuSans-64" x="981.402344"/>
     <use xlink:href="#DejaVuSans-20" x="1044.878906"/>
     <use xlink:href="#DejaVuSans-63" x="1076.666016"/>
     <use xlink:href="#DejaVuSans-6f" x="1131.646484"/>
     <use xlink:href="#DejaVuSans-6d" x="1192.828125"/>
     <use xlink:href="#DejaVuSans-70" x="1290.240234"/>
     <use xlink:href="#DejaVuSans-61" x="1353.716797"/>
     <use xlink:href="#DejaVuSans-6e" x="1414.996094"/>
     <use xlink:href="#DejaVuSans-69" x="1478.375"/>
     <use xlink:href="#DejaVuSans-6f" x="1506.158203"/>
     <use xlink:href="#DejaVuSans-6e" x="1567.339844"/>
     <use xlink:href="#DejaVuSans-29" x="1630.71875"/>
    </g>
   </g>
   <g id="patch_18">
    <path d="M 145.722041 213.021 
Q 154.881245 213.021 162.922416 213.021 
" style="fill: none; stroke: #607d8b; stroke-linecap: round"/>
    <path d="M 158.922416 211.021 
L 162.922416 213.021 
L 158.922416 215.021 
" style="fill: none; stroke: #607d8b; stroke-linecap: round"/>
   </g>
   <g id="text_6">
    <!-- length penalty -->
    <g style="fill: #212121" transform="translate(49.652578 258.701437) scale(0.09 -0.09)">
     <defs>
      <path id="DejaVuSans-79" d="M 2059 -325 
Q 1816 -950 1584 -1140 
Q 1353 -1331 966 -1331 
L 506 -1331 
L 506 -850 
L 844 -850 
Q 1081 -850 1212 -737 
Q 1344 -625 1503 -206 
L 1606 56 
L 191 3500 
L 800 3500 
L 1894 763 
L 2988 3500 
L 3597 3500 
L 2059 -325 
z
" transform="scale(0.015625)"/>
     </defs>
     <use xlink:href="#DejaVuSans-6c"/>
     <use xlink:href="#DejaVuSans-65" x="27.783203"/>
     <use xlink:href="#DejaVuSans-6e" x="89.306641"/>
     <use xlink:href="#DejaVuSans-67" x="152.685547"/>
     <use xlink:href="#DejaVuSans-74" x="216.162109"/>
     <use xlink:href="#DejaVuSans-68" x="255.371094"/>
     <use xlink:href="#DejaVuSans-20" x="318.75"/>
     <use xlink:href="#DejaVuSans-70" x="350.537109"/>
     <use xlink:href="#DejaVuSans-65" x="414.013672"/>
     <use xlink:href="#DejaVuSans-6e" x="475.537109"/>
     <use xlink:href="#DejaVuSans-61" x="538.916016"/>
     <use xlink:href="#DejaVuSans-6c" x="600.195312"/>
     <use xlink:href="#DejaVuSans-74" x="627.978516"/>
     <use xlink:href="#DejaVuSans-79" x="667.1875"/>
    </g>
   </g>
   <g id="patch_19">
    <path d="M 145.722041 256.218 
Q 154.881245 256.218 162.922416 256.218 
" style="fill: none; stroke: #607d8b; stroke-linecap: round"/>
    <path d="M 158.922416 254.218 
L 162.922416 256.218 
L 158.922416 258.218 
" style="fill: none; stroke: #607d8b; stroke-linecap: round"/>
   </g>
   <g id="text_7">
    <!-- Gate G -->
    <g style="fill: #212121" transform="translate(205.525547 108.041975) scale(0.1 -0.1)">
     <defs>
      <path id="DejaVuSans-Bold-47" d="M 4781 347 
Q 4331 128 3847 18 
Q 3363 -91 2847 -91 
Q 1681 -91 1000 561 
Q 319 1213 319 2328 
Q 319 3456 1012 4103 
Q 1706 4750 2913 4750 
Q 3378 4750 3804 4662 
Q 4231 4575 4609 4403 
L 4609 3438 
Q 4219 3659 3833 3768 
Q 3447 3878 3059 3878 
Q 2341 3878 1952 3476 
Q 1563 3075 1563 2328 
Q 1563 1588 1938 1184 
Q 2313 781 3003 781 
Q 3191 781 3352 804 
Q 3513 828 3641 878 
L 3641 1784 
L 2906 1784 
L 2906 2591 
L 4781 2591 
L 4781 347 
z
" transform="scale(0.015625)"/>
      <path id="DejaVuSans-Bold-74" d="M 1759 4494 
L 1759 3500 
L 2913 3500 
L 2913 2700 
L 1759 2700 
L 1759 1216 
Q 1759 972 1856 886 
Q 1953 800 2241 800 
L 2816 800 
L 2816 0 
L 1856 0 
Q 1194 0 917 276 
Q 641 553 641 1216 
L 641 2700 
L 84 2700 
L 84 3500 
L 641 3500 
L 641 4494 
L 1759 4494 
z
" transform="scale(0.015625)"/>
     </defs>
     <use xlink:href="#DejaVuSans-Bold-47"/>
     <use xlink:href="#DejaVuSans-Bold-61" x="82.080078"/>
     <use xlink:href="#DejaVuSans-Bold-74" x="149.560547"/>
     <use xlink:href="#DejaVuSans-Bold-65" x="197.363281"/>
     <use xlink:href="#DejaVuSans-Bold-20" x="265.185547"/>
     <use xlink:href="#DejaVuSans-Bold-47" x="300"/>
    </g>
   </g>
   <g id="text_8">
    <!-- [ $\bigwedge_g g(x)=1$ ] -->
    <g style="fill: #37474f" transform="translate(197.174453 118.0726) scale(0.085 -0.085)">
     <defs>
      <path id="DejaVuSans-5b" d="M 550 4863 
L 1875 4863 
L 1875 4416 
L 1125 4416 
L 1125 -397 
L 1875 -397 
L 1875 -844 
L 550 -844 
L 550 4863 
z
" transform="scale(0.015625)"/>
      <path id="DejaVuSansDisplay-22c0" d="M 4203 6509 
L 7450 -1738 
L 6553 -1738 
L 3713 5578 
L 872 -1738 
L -25 -1738 
L 3213 6509 
L 4203 6509 
z
" transform="scale(0.015625)"/>
      <path id="DejaVuSans-Oblique-67" d="M 3816 3500 
L 3219 434 
Q 3047 -456 2561 -893 
Q 2075 -1331 1253 -1331 
Q 950 -1331 690 -1286 
Q 431 -1241 206 -1147 
L 313 -588 
Q 525 -725 762 -790 
Q 1000 -856 1269 -856 
Q 1816 -856 2167 -557 
Q 2519 -259 2631 300 
L 2681 563 
Q 2441 288 2122 144 
Q 1803 0 1434 0 
Q 903 0 598 351 
Q 294 703 294 1319 
Q 294 1803 478 2267 
Q 663 2731 997 3091 
Q 1219 3328 1514 3456 
Q 1809 3584 2131 3584 
Q 2484 3584 2746 3420 
Q 3009 3256 3138 2956 
L 3238 3500 
L 3816 3500 
z
M 2950 2216 
Q 2950 2641 2750 2872 
Q 2550 3103 2181 3103 
Q 1953 3103 1747 3012 
Q 1541 2922 1394 2759 
Q 1156 2491 1023 2127 
Q 891 1763 891 1375 
Q 891 944 1092 712 
Q 1294 481 1672 481 
Q 2219 481 2584 976 
Q 2950 1472 2950 2216 
z
" transform="scale(0.015625)"/>
      <path id="DejaVuSans-Oblique-78" d="M 3841 3500 
L 2234 1784 
L 3219 0 
L 2559 0 
L 1819 1388 
L 531 0 
L -166 0 
L 1556 1844 
L 641 3500 
L 1300 3500 
L 1972 2234 
L 3144 3500 
L 3841 3500 
z
" transform="scale(0.015625)"/>
      <path id="DejaVuSans-3d" d="M 678 2906 
L 4684 2906 
L 4684 2381 
L 678 2381 
L 678 2906 
z
M 678 1631 
L 4684 1631 
L 4684 1100 
L 678 1100 
L 678 1631 
z
" transform="scale(0.015625)"/>
      <path id="DejaVuSans-31" d="M 794 531 
L 1825 531 
L 1825 4091 
L 703 3866 
L 703 4441 
L 1819 4666 
L 2450 4666 
L 2450 531 
L 3481 531 
L 3481 0 
L 794 0 
L 794 531 
z
" transform="scale(0.015625)"/>
      <path id="DejaVuSans-5d" d="M 1947 4863 
L 1947 -844 
L 622 -844 
L 622 -397 
L 1369 -397 
L 1369 4416 
L 622 4416 
L 622 4863 
L 1947 4863 
z
" transform="scale(0.015625)"/>
     </defs>
     <use xlink:href="#DejaVuSans-5b" transform="translate(0 0.296875)"/>
     <use xlink:href="#DejaVuSans-20" transform="translate(39.013672 0.296875)"/>
     <use xlink:href="#DejaVuSansDisplay-22c0" transform="translate(70.800781 0.296875)"/>
     <use xlink:href="#DejaVuSans-Oblique-67" transform="translate(109.800781 -84.809375) scale(0.7)"/>
     <use xlink:href="#DejaVuSans-Oblique-67" transform="translate(187.597656 0.296875)"/>
     <use xlink:href="#DejaVuSans-28" transform="translate(251.074219 0.296875)"/>
     <use xlink:href="#DejaVuSans-Oblique-78" transform="translate(290.087891 0.296875)"/>
     <use xlink:href="#DejaVuSans-29" transform="translate(349.267578 0.296875)"/>
     <use xlink:href="#DejaVuSans-3d" transform="translate(407.763672 0.296875)"/>
     <use xlink:href="#DejaVuSans-31" transform="translate(511.035156 0.296875)"/>
     <use xlink:href="#DejaVuSans-20" transform="translate(574.658203 0.296875)"/>
     <use xlink:href="#DejaVuSans-5d" transform="translate(606.445312 0.296875)"/>
    </g>
   </g>
   <g id="text_9">
    <!-- DifferentialCap -->
    <g style="fill: #212121" transform="translate(181.791953 174.107975) scale(0.1 -0.1)">
     <defs>
      <path id="DejaVuSans-Bold-44" d="M 1791 3756 
L 1791 909 
L 2222 909 
Q 2959 909 3348 1275 
Q 3738 1641 3738 2338 
Q 3738 3031 3350 3393 
Q 2963 3756 2222 3756 
L 1791 3756 
z
M 588 4666 
L 1856 4666 
Q 2919 4666 3439 4514 
Q 3959 4363 4331 4000 
Q 4659 3684 4818 3271 
Q 4978 2859 4978 2338 
Q 4978 1809 4818 1395 
Q 4659 981 4331 666 
Q 3956 303 3431 151 
Q 2906 0 1856 0 
L 588 0 
L 588 4666 
z
" transform="scale(0.015625)"/>
      <path id="DejaVuSans-Bold-69" d="M 538 3500 
L 1656 3500 
L 1656 0 
L 538 0 
L 538 3500 
z
M 538 4863 
L 1656 4863 
L 1656 3950 
L 538 3950 
L 538 4863 
z
" transform="scale(0.015625)"/>
      <path id="DejaVuSans-Bold-66" d="M 2841 4863 
L 2841 4128 
L 2222 4128 
Q 1984 4128 1890 4042 
Q 1797 3956 1797 3744 
L 1797 3500 
L 2753 3500 
L 2753 2700 
L 1797 2700 
L 1797 0 
L 678 0 
L 678 2700 
L 122 2700 
L 122 3500 
L 678 3500 
L 678 3744 
Q 678 4316 997 4589 
Q 1316 4863 1984 4863 
L 2841 4863 
z
" transform="scale(0.015625)"/>
      <path id="DejaVuSans-Bold-6e" d="M 4056 2131 
L 4056 0 
L 2931 0 
L 2931 347 
L 2931 1631 
Q 2931 2084 2911 2256 
Q 2891 2428 2841 2509 
Q 2775 2619 2662 2680 
Q 2550 2741 2406 2741 
Q 2056 2741 1856 2470 
Q 1656 2200 1656 1722 
L 1656 0 
L 538 0 
L 538 3500 
L 1656 3500 
L 1656 2988 
Q 1909 3294 2193 3439 
Q 2478 3584 2822 3584 
Q 3428 3584 3742 3212 
Q 4056 2841 4056 2131 
z
" transform="scale(0.015625)"/>
      <path id="DejaVuSans-Bold-43" d="M 4288 256 
Q 3956 84 3597 -3 
Q 3238 -91 2847 -91 
Q 1681 -91 1000 561 
Q 319 1213 319 2328 
Q 319 3447 1000 4098 
Q 1681 4750 2847 4750 
Q 3238 4750 3597 4662 
Q 3956 4575 4288 4403 
L 4288 3438 
Q 3953 3666 3628 3772 
Q 3303 3878 2944 3878 
Q 2300 3878 1931 3465 
Q 1563 3053 1563 2328 
Q 1563 1606 1931 1193 
Q 2300 781 2944 781 
Q 3303 781 3628 887 
Q 3953 994 4288 1222 
L 4288 256 
z
" transform="scale(0.015625)"/>
     </defs>
     <use xlink:href="#DejaVuSans-Bold-44"/>
     <use xlink:href="#DejaVuSans-Bold-69" x="83.007812"/>
     <use xlink:href="#DejaVuSans-Bold-66" x="117.285156"/>
     <use xlink:href="#DejaVuSans-Bold-66" x="160.791016"/>
     <use xlink:href="#DejaVuSans-Bold-65" x="204.296875"/>
     <use xlink:href="#DejaVuSans-Bold-72" x="272.119141"/>
     <use xlink:href="#DejaVuSans-Bold-65" x="321.435547"/>
     <use xlink:href="#DejaVuSans-Bold-6e" x="389.257812"/>
     <use xlink:href="#DejaVuSans-Bold-74" x="460.449219"/>
     <use xlink:href="#DejaVuSans-Bold-69" x="508.251953"/>
     <use xlink:href="#DejaVuSans-Bold-61" x="542.529297"/>
     <use xlink:href="#DejaVuSans-Bold-6c" x="610.009766"/>
     <use xlink:href="#DejaVuSans-Bold-43" x="644.287109"/>
     <use xlink:href="#DejaVuSans-Bold-61" x="717.675781"/>
     <use xlink:href="#DejaVuSans-Bold-70" x="785.15625"/>
    </g>
   </g>
   <g id="text_10">
    <!-- $s_{\rm blind}+{\rm clip}(s_{\rm aware}-s_{\rm blind},\pm\delta)$ -->
    <g style="fill: #37474f" transform="translate(162.706953 186.3911) scale(0.085 -0.085)">
     <defs>
      <path id="DejaVuSans-Oblique-73" d="M 3200 3397 
L 3091 2853 
Q 2863 2978 2609 3040 
Q 2356 3103 2088 3103 
Q 1634 3103 1373 2948 
Q 1113 2794 1113 2528 
Q 1113 2219 1719 2053 
Q 1766 2041 1788 2034 
L 1972 1978 
Q 2547 1819 2739 1644 
Q 2931 1469 2931 1166 
Q 2931 609 2489 259 
Q 2047 -91 1331 -91 
Q 1053 -91 747 -37 
Q 441 16 72 128 
L 184 722 
Q 500 559 806 475 
Q 1113 391 1394 391 
Q 1816 391 2080 572 
Q 2344 753 2344 1031 
Q 2344 1331 1650 1516 
L 1591 1531 
L 1394 1581 
Q 956 1697 753 1886 
Q 550 2075 550 2369 
Q 550 2928 970 3256 
Q 1391 3584 2113 3584 
Q 2397 3584 2667 3537 
Q 2938 3491 3200 3397 
z
" transform="scale(0.015625)"/>
      <path id="DejaVuSans-2b" d="M 2944 4013 
L 2944 2272 
L 4684 2272 
L 4684 1741 
L 2944 1741 
L 2944 0 
L 2419 0 
L 2419 1741 
L 678 1741 
L 678 2272 
L 2419 2272 
L 2419 4013 
L 2944 4013 
z
" transform="scale(0.015625)"/>
      <path id="DejaVuSans-2212" d="M 678 2272 
L 4684 2272 
L 4684 1741 
L 678 1741 
L 678 2272 
z
" transform="scale(0.015625)"/>
      <path id="DejaVuSans-2c" d="M 750 794 
L 1409 794 
L 1409 256 
L 897 -744 
L 494 -744 
L 750 256 
L 750 794 
z
" transform="scale(0.015625)"/>
      <path id="DejaVuSans-b1" d="M 2944 4013 
L 2944 2803 
L 4684 2803 
L 4684 2272 
L 2944 2272 
L 2944 1063 
L 2419 1063 
L 2419 2272 
L 678 2272 
L 678 2803 
L 2419 2803 
L 2419 4013 
L 2944 4013 
z
M 678 531 
L 4684 531 
L 4684 0 
L 678 0 
L 678 531 
z
" transform="scale(0.015625)"/>
      <path id="DejaVuSans-Oblique-3b4" d="M 3472 4053 
Q 3197 4272 2450 4272 
Q 1659 4272 1588 3906 
Q 1531 3619 2328 3469 
Q 2953 3353 3253 3003 
Q 3616 2581 3447 1716 
Q 3284 888 2763 400 
Q 2238 -91 1488 -91 
Q 741 -91 406 400 
Q 72 888 241 1747 
Q 363 2384 891 2900 
Q 1097 3100 1353 3213 
Q 913 3459 1000 3900 
Q 1166 4750 2544 4750 
Q 3234 4750 3566 4531 
L 3472 4053 
z
M 1753 3056 
Q 1525 2966 1306 2738 
Q 969 2384 847 1747 
Q 722 1113 919 756 
Q 1119 397 1584 397 
Q 2044 397 2381 759 
Q 2722 1122 2838 1716 
Q 2956 2338 2731 2638 
Q 2491 2959 2103 2994 
Q 1906 3013 1753 3056 
z
" transform="scale(0.015625)"/>
     </defs>
     <use xlink:href="#DejaVuSans-Oblique-73" transform="translate(0 0.015625)"/>
     <use xlink:href="#DejaVuSans-62" transform="translate(52.099609 -16.390625) scale(0.7)"/>
     <use xlink:href="#DejaVuSans-6c" transform="translate(96.533203 -16.390625) scale(0.7)"/>
     <use xlink:href="#DejaVuSans-69" transform="translate(115.981445 -16.390625) scale(0.7)"/>
     <use xlink:href="#DejaVuSans-6e" transform="translate(135.429688 -16.390625) scale(0.7)"/>
     <use xlink:href="#DejaVuSans-64" transform="translate(179.794922 -16.390625) scale(0.7)"/>
     <use xlink:href="#DejaVuSans-2b" transform="translate(246.445312 0.015625)"/>
     <use xlink:href="#DejaVuSans-63" transform="translate(349.716797 0.015625)"/>
     <use xlink:href="#DejaVuSans-6c" transform="translate(404.697266 0.015625)"/>
     <use xlink:href="#DejaVuSans-69" transform="translate(432.480469 0.015625)"/>
     <use xlink:href="#DejaVuSans-70" transform="translate(460.263672 0.015625)"/>
     <use xlink:href="#DejaVuSans-28" transform="translate(523.740234 0.015625)"/>
     <use xlink:href="#DejaVuSans-Oblique-73" transform="translate(562.753906 0.015625)"/>
     <use xlink:href="#DejaVuSans-61" transform="translate(614.853516 -16.390625) scale(0.7)"/>
     <use xlink:href="#DejaVuSans-77" transform="translate(657.749023 -16.390625) scale(0.7)"/>
     <use xlink:href="#DejaVuSans-61" transform="translate(715 -16.390625) scale(0.7)"/>
     <use xlink:href="#DejaVuSans-72" transform="translate(757.895508 -16.390625) scale(0.7)"/>
     <use xlink:href="#DejaVuSans-65" transform="translate(786.674805 -16.390625) scale(0.7)"/>
     <use xlink:href="#DejaVuSans-2212" transform="translate(851.958008 0.015625)"/>
     <use xlink:href="#DejaVuSans-Oblique-73" transform="translate(955.229492 0.015625)"/>
     <use xlink:href="#DejaVuSans-62" transform="translate(1007.329102 -16.390625) scale(0.7)"/>
     <use xlink:href="#DejaVuSans-6c" transform="translate(1051.762695 -16.390625) scale(0.7)"/>
     <use xlink:href="#DejaVuSans-69" transform="translate(1071.210938 -16.390625) scale(0.7)"/>
     <use xlink:href="#DejaVuSans-6e" transform="translate(1090.65918 -16.390625) scale(0.7)"/>
     <use xlink:href="#DejaVuSans-64" transform="translate(1135.024414 -16.390625) scale(0.7)"/>
     <use xlink:href="#DejaVuSans-2c" transform="translate(1182.192383 0.015625)"/>
     <use xlink:href="#DejaVuSans-b1" transform="translate(1252.944336 0.015625)"/>
     <use xlink:href="#DejaVuSans-Oblique-3b4" transform="translate(1356.21582 0.015625)"/>
     <use xlink:href="#DejaVuSans-29" transform="translate(1417.397461 0.015625)"/>
    </g>
   </g>
   <g id="text_11">
    <!-- Cap -->
    <g style="fill: #212121" transform="translate(214.006797 240.173975) scale(0.1 -0.1)">
     <use xlink:href="#DejaVuSans-Bold-43"/>
     <use xlink:href="#DejaVuSans-Bold-61" x="73.388672"/>
     <use xlink:href="#DejaVuSans-Bold-70" x="140.869141"/>
    </g>
   </g>
   <g id="text_12">
    <!-- $\min(c_s, s(x))$ -->
    <g style="fill: #37474f" transform="translate(199.044453 252.465069) scale(0.085 -0.085)">
     <defs>
      <path id="DejaVuSans-Oblique-63" d="M 3431 3366 
L 3316 2797 
Q 3109 2947 2876 3022 
Q 2644 3097 2394 3097 
Q 2119 3097 1870 3000 
Q 1622 2903 1453 2725 
Q 1184 2453 1037 2087 
Q 891 1722 891 1331 
Q 891 859 1127 628 
Q 1363 397 1844 397 
Q 2081 397 2348 469 
Q 2616 541 2906 684 
L 2797 116 
Q 2547 13 2283 -39 
Q 2019 -91 1741 -91 
Q 1044 -91 669 257 
Q 294 606 294 1253 
Q 294 1797 489 2255 
Q 684 2713 1069 3078 
Q 1331 3328 1684 3456 
Q 2038 3584 2456 3584 
Q 2700 3584 2940 3529 
Q 3181 3475 3431 3366 
z
" transform="scale(0.015625)"/>
     </defs>
     <use xlink:href="#DejaVuSans-6d" transform="translate(0 0.015625)"/>
     <use xlink:href="#DejaVuSans-69" transform="translate(97.412109 0.015625)"/>
     <use xlink:href="#DejaVuSans-6e" transform="translate(125.195312 0.015625)"/>
     <use xlink:href="#DejaVuSans-28" transform="translate(188.574219 0.015625)"/>
     <use xlink:href="#DejaVuSans-Oblique-63" transform="translate(227.587891 0.015625)"/>
     <use xlink:href="#DejaVuSans-Oblique-73" transform="translate(282.568359 -16.390625) scale(0.7)"/>
     <use xlink:href="#DejaVuSans-2c" transform="translate(321.772461 0.015625)"/>
     <use xlink:href="#DejaVuSans-Oblique-73" transform="translate(373.041992 0.015625)"/>
     <use xlink:href="#DejaVuSans-28" transform="translate(425.141602 0.015625)"/>
     <use xlink:href="#DejaVuSans-Oblique-78" transform="translate(464.155273 0.015625)"/>
     <use xlink:href="#DejaVuSans-29" transform="translate(523.334961 0.015625)"/>
     <use xlink:href="#DejaVuSans-29" transform="translate(562.348633 0.015625)"/>
    </g>
   </g>
   <g id="text_13">
    <!-- $\sum$ -->
    <g style="fill: #212121" transform="translate(356.539453 175.0486) scale(0.1 -0.1)">
     <defs>
      <path id="DejaVuSansDisplay-2211" d="M 244 6509 
L 5803 6509 
L 5803 5656 
L 1566 5656 
L 4534 2488 
L 1469 -888 
L 5919 -888 
L 5919 -1738 
L 109 -1738 
L 109 -1078 
L 3316 2463 
L 244 5728 
L 244 6509 
z
" transform="scale(0.015625)"/>
     </defs>
     <use xlink:href="#DejaVuSansDisplay-2211" transform="translate(0 0.296875)"/>
    </g>
   </g>
   <g id="text_14">
    <!-- sum of capped scorers -->
    <g style="fill: #37474f" transform="translate(313.113906 186.399069) scale(0.085 -0.085)">
     <use xlink:href="#DejaVuSans-73"/>
     <use xlink:href="#DejaVuSans-75" x="52.099609"/>
     <use xlink:href="#DejaVuSans-6d" x="115.478516"/>
     <use xlink:href="#DejaVuSans-20" x="212.890625"/>
     <use xlink:href="#DejaVuSans-6f" x="244.677734"/>
     <use xlink:href="#DejaVuSans-66" x="305.859375"/>
     <use xlink:href="#DejaVuSans-20" x="341.064453"/>
     <use xlink:href="#DejaVuSans-63" x="372.851562"/>
     <use xlink:href="#DejaVuSans-61" x="427.832031"/>
     <use xlink:href="#DejaVuSans-70" x="489.111328"/>
     <use xlink:href="#DejaVuSans-70" x="552.587891"/>
     <use xlink:href="#DejaVuSans-65" x="616.064453"/>
     <use xlink:href="#DejaVuSans-64" x="677.587891"/>
     <use xlink:href="#DejaVuSans-20" x="741.064453"/>
     <use xlink:href="#DejaVuSans-73" x="772.851562"/>
     <use xlink:href="#DejaVuSans-63" x="824.951172"/>
     <use xlink:href="#DejaVuSans-6f" x="879.931641"/>
     <use xlink:href="#DejaVuSans-72" x="941.113281"/>
     <use xlink:href="#DejaVuSans-65" x="979.976562"/>
     <use xlink:href="#DejaVuSans-72" x="1041.5"/>
     <use xlink:href="#DejaVuSans-73" x="1082.613281"/>
    </g>
   </g>
   <g id="text_15">
    <!-- $\cdot$ -->
    <g style="fill: #212121" transform="translate(454.599453 174.107975) scale(0.1 -0.1)">
     <defs>
      <path id="DejaVuSans-22c5" d="M 684 2619 
L 1344 2619 
L 1344 1825 
L 684 1825 
L 684 2619 
z
" transform="scale(0.015625)"/>
     </defs>
     <use xlink:href="#DejaVuSans-22c5" transform="translate(0 0.078125)"/>
    </g>
   </g>
   <g id="text_16">
    <!-- gate indicator -->
    <g style="fill: #37474f" transform="translate(426.557031 186.399069) scale(0.085 -0.085)">
     <use xlink:href="#DejaVuSans-67"/>
     <use xlink:href="#DejaVuSans-61" x="63.476562"/>
     <use xlink:href="#DejaVuSans-74" x="124.755859"/>
     <use xlink:href="#DejaVuSans-65" x="163.964844"/>
     <use xlink:href="#DejaVuSans-20" x="225.488281"/>
     <use xlink:href="#DejaVuSans-69" x="257.275391"/>
     <use xlink:href="#DejaVuSans-6e" x="285.058594"/>
     <use xlink:href="#DejaVuSans-64" x="348.4375"/>
     <use xlink:href="#DejaVuSans-69" x="411.914062"/>
     <use xlink:href="#DejaVuSans-63" x="439.697266"/>
     <use xlink:href="#DejaVuSans-61" x="494.677734"/>
     <use xlink:href="#DejaVuSans-74" x="555.957031"/>
     <use xlink:href="#DejaVuSans-6f" x="595.166016"/>
     <use xlink:href="#DejaVuSans-72" x="656.347656"/>
    </g>
   </g>
   <g id="patch_20">
    <path d="M 273.179268 110.497295 
Q 294.380217 141.874131 314.95522 172.324581 
" style="fill: none; stroke: #37474f; stroke-linecap: round"/>
    <path d="M 314.372931 167.890516 
L 314.95522 172.324581 
L 311.058594 170.129973 
" style="fill: none; stroke: #37474f; stroke-linecap: round"/>
   </g>
   <g id="patch_21">
    <path d="M 274.062041 174.906 
Q 294.380132 174.906 313.580188 174.906 
" style="fill: none; stroke: #37474f; stroke-linecap: round"/>
    <path d="M 309.580188 172.906 
L 313.580188 174.906 
L 309.580188 176.906 
" style="fill: none; stroke: #37474f; stroke-linecap: round"/>
   </g>
   <g id="patch_22">
    <path d="M 273.179268 239.314705 
Q 294.380217 207.937869 314.95522 177.487419 
" style="fill: none; stroke: #37474f; stroke-linecap: round"/>
    <path d="M 311.058594 179.682027 
L 314.95522 177.487419 
L 314.372931 181.921484 
" style="fill: none; stroke: #37474f; stroke-linecap: round"/>
   </g>
   <g id="patch_23">
    <path d="M 407.982041 174.906 
Q 417.141245 174.906 425.182416 174.906 
" style="fill: none; stroke: #37474f; stroke-linecap: round"/>
    <path d="M 421.182416 172.906 
L 425.182416 174.906 
L 421.182416 176.906 
" style="fill: none; stroke: #37474f; stroke-linecap: round"/>
   </g>
   <g id="text_17">
    <!-- bounded R(x) -->
    <g style="fill: #212121" transform="translate(529.731484 177.665375) scale(0.1 -0.1)">
     <defs>
      <path id="DejaVuSans-Bold-62" d="M 2400 722 
Q 2759 722 2948 984 
Q 3138 1247 3138 1747 
Q 3138 2247 2948 2509 
Q 2759 2772 2400 2772 
Q 2041 2772 1848 2508 
Q 1656 2244 1656 1747 
Q 1656 1250 1848 986 
Q 2041 722 2400 722 
z
M 1656 2988 
Q 1888 3294 2169 3439 
Q 2450 3584 2816 3584 
Q 3463 3584 3878 3070 
Q 4294 2556 4294 1747 
Q 4294 938 3878 423 
Q 3463 -91 2816 -91 
Q 2450 -91 2169 54 
Q 1888 200 1656 506 
L 1656 0 
L 538 0 
L 538 4863 
L 1656 4863 
L 1656 2988 
z
" transform="scale(0.015625)"/>
      <path id="DejaVuSans-Bold-6f" d="M 2203 2784 
Q 1831 2784 1636 2517 
Q 1441 2250 1441 1747 
Q 1441 1244 1636 976 
Q 1831 709 2203 709 
Q 2569 709 2762 976 
Q 2956 1244 2956 1747 
Q 2956 2250 2762 2517 
Q 2569 2784 2203 2784 
z
M 2203 3584 
Q 3106 3584 3614 3096 
Q 4122 2609 4122 1747 
Q 4122 884 3614 396 
Q 3106 -91 2203 -91 
Q 1297 -91 786 396 
Q 275 884 275 1747 
Q 275 2609 786 3096 
Q 1297 3584 2203 3584 
z
" transform="scale(0.015625)"/>
      <path id="DejaVuSans-Bold-75" d="M 500 1363 
L 500 3500 
L 1625 3500 
L 1625 3150 
Q 1625 2866 1622 2436 
Q 1619 2006 1619 1863 
Q 1619 1441 1641 1255 
Q 1663 1069 1716 984 
Q 1784 875 1895 815 
Q 2006 756 2150 756 
Q 2500 756 2700 1025 
Q 2900 1294 2900 1772 
L 2900 3500 
L 4019 3500 
L 4019 0 
L 2900 0 
L 2900 506 
Q 2647 200 2364 54 
Q 2081 -91 1741 -91 
Q 1134 -91 817 281 
Q 500 653 500 1363 
z
" transform="scale(0.015625)"/>
      <path id="DejaVuSans-Bold-52" d="M 2297 2597 
Q 2675 2597 2839 2737 
Q 3003 2878 3003 3200 
Q 3003 3519 2839 3656 
Q 2675 3794 2297 3794 
L 1791 3794 
L 1791 2597 
L 2297 2597 
z
M 1791 1766 
L 1791 0 
L 588 0 
L 588 4666 
L 2425 4666 
Q 3347 4666 3776 4356 
Q 4206 4047 4206 3378 
Q 4206 2916 3982 2619 
Q 3759 2322 3309 2181 
Q 3556 2125 3751 1926 
Q 3947 1728 4147 1325 
L 4800 0 
L 3519 0 
L 2950 1159 
Q 2778 1509 2601 1637 
Q 2425 1766 2131 1766 
L 1791 1766 
z
" transform="scale(0.015625)"/>
      <path id="DejaVuSans-Bold-28" d="M 2413 -844 
L 1484 -844 
Q 1006 -72 778 623 
Q 550 1319 550 2003 
Q 550 2688 779 3389 
Q 1009 4091 1484 4856 
L 2413 4856 
Q 2013 4116 1813 3408 
Q 1613 2700 1613 2009 
Q 1613 1319 1811 609 
Q 2009 -100 2413 -844 
z
" transform="scale(0.015625)"/>
      <path id="DejaVuSans-Bold-78" d="M 1422 1791 
L 159 3500 
L 1344 3500 
L 2059 2463 
L 2784 3500 
L 3969 3500 
L 2706 1797 
L 4031 0 
L 2847 0 
L 2059 1106 
L 1281 0 
L 97 0 
L 1422 1791 
z
" transform="scale(0.015625)"/>
      <path id="DejaVuSans-Bold-29" d="M 513 -844 
Q 913 -100 1113 609 
Q 1313 1319 1313 2009 
Q 1313 2700 1113 3408 
Q 913 4116 513 4856 
L 1441 4856 
Q 1916 4091 2145 3389 
Q 2375 2688 2375 2003 
Q 2375 1319 2147 623 
Q 1919 -72 1441 -844 
L 513 -844 
z
" transform="scale(0.015625)"/>
     </defs>
     <use xlink:href="#DejaVuSans-Bold-62"/>
     <use xlink:href="#DejaVuSans-Bold-6f" x="71.582031"/>
     <use xlink:href="#DejaVuSans-Bold-75" x="140.283203"/>
     <use xlink:href="#DejaVuSans-Bold-6e" x="211.474609"/>
     <use xlink:href="#DejaVuSans-Bold-64" x="282.666016"/>
     <use xlink:href="#DejaVuSans-Bold-65" x="354.248047"/>
     <use xlink:href="#DejaVuSans-Bold-64" x="422.070312"/>
     <use xlink:href="#DejaVuSans-Bold-20" x="493.652344"/>
     <use xlink:href="#DejaVuSans-Bold-52" x="528.466797"/>
     <use xlink:href="#DejaVuSans-Bold-28" x="605.46875"/>
     <use xlink:href="#DejaVuSans-Bold-78" x="651.171875"/>
     <use xlink:href="#DejaVuSans-Bold-29" x="715.673828"/>
    </g>
   </g>
   <g id="patch_24">
    <path d="M 486.097954 174.906 
Q 500.837613 174.906 514.235632 174.906 
" style="fill: none; stroke: #37474f; stroke-width: 1.2; stroke-linecap: round"/>
    <path d="M 510.235632 172.906 
L 514.235632 174.906 
L 510.235632 176.906 
" style="fill: none; stroke: #37474f; stroke-width: 1.2; stroke-linecap: round"/>
   </g>
   <g id="text_18">
    <!-- policy gradient -->
    <g style="fill: #212121" transform="translate(534.164766 230.793422) scale(0.09 -0.09)">
     <use xlink:href="#DejaVuSans-70"/>
     <use xlink:href="#DejaVuSans-6f" x="63.476562"/>
     <use xlink:href="#DejaVuSans-6c" x="124.658203"/>
     <use xlink:href="#DejaVuSans-69" x="152.441406"/>
     <use xlink:href="#DejaVuSans-63" x="180.224609"/>
     <use xlink:href="#DejaVuSans-79" x="235.205078"/>
     <use xlink:href="#DejaVuSans-20" x="294.384766"/>
     <use xlink:href="#DejaVuSans-67" x="326.171875"/>
     <use xlink:href="#DejaVuSans-72" x="389.648438"/>
     <use xlink:href="#DejaVuSans-61" x="430.761719"/>
     <use xlink:href="#DejaVuSans-64" x="492.041016"/>
     <use xlink:href="#DejaVuSans-69" x="555.517578"/>
     <use xlink:href="#DejaVuSans-65" x="583.300781"/>
     <use xlink:href="#DejaVuSans-6e" x="644.824219"/>
     <use xlink:href="#DejaVuSans-74" x="708.203125"/>
    </g>
    <!-- (PPO / GRPO) -->
    <g style="fill: #212121" transform="translate(538.073437 240.871453) scale(0.09 -0.09)">
     <defs>
      <path id="DejaVuSans-50" d="M 1259 4147 
L 1259 2394 
L 2053 2394 
Q 2494 2394 2734 2622 
Q 2975 2850 2975 3272 
Q 2975 3691 2734 3919 
Q 2494 4147 2053 4147 
L 1259 4147 
z
M 628 4666 
L 2053 4666 
Q 2838 4666 3239 4311 
Q 3641 3956 3641 3272 
Q 3641 2581 3239 2228 
Q 2838 1875 2053 1875 
L 1259 1875 
L 1259 0 
L 628 0 
L 628 4666 
z
" transform="scale(0.015625)"/>
      <path id="DejaVuSans-4f" d="M 2522 4238 
Q 1834 4238 1429 3725 
Q 1025 3213 1025 2328 
Q 1025 1447 1429 934 
Q 1834 422 2522 422 
Q 3209 422 3611 934 
Q 4013 1447 4013 2328 
Q 4013 3213 3611 3725 
Q 3209 4238 2522 4238 
z
M 2522 4750 
Q 3503 4750 4090 4092 
Q 4678 3434 4678 2328 
Q 4678 1225 4090 567 
Q 3503 -91 2522 -91 
Q 1538 -91 948 565 
Q 359 1222 359 2328 
Q 359 3434 948 4092 
Q 1538 4750 2522 4750 
z
" transform="scale(0.015625)"/>
      <path id="DejaVuSans-2f" d="M 1625 4666 
L 2156 4666 
L 531 -594 
L 0 -594 
L 1625 4666 
z
" transform="scale(0.015625)"/>
      <path id="DejaVuSans-47" d="M 3809 666 
L 3809 1919 
L 2778 1919 
L 2778 2438 
L 4434 2438 
L 4434 434 
Q 4069 175 3628 42 
Q 3188 -91 2688 -91 
Q 1594 -91 976 548 
Q 359 1188 359 2328 
Q 359 3472 976 4111 
Q 1594 4750 2688 4750 
Q 3144 4750 3555 4637 
Q 3966 4525 4313 4306 
L 4313 3634 
Q 3963 3931 3569 4081 
Q 3175 4231 2741 4231 
Q 1884 4231 1454 3753 
Q 1025 3275 1025 2328 
Q 1025 1384 1454 906 
Q 1884 428 2741 428 
Q 3075 428 3337 486 
Q 3600 544 3809 666 
z
" transform="scale(0.015625)"/>
      <path id="DejaVuSans-52" d="M 2841 2188 
Q 3044 2119 3236 1894 
Q 3428 1669 3622 1275 
L 4263 0 
L 3584 0 
L 2988 1197 
Q 2756 1666 2539 1819 
Q 2322 1972 1947 1972 
L 1259 1972 
L 1259 0 
L 628 0 
L 628 4666 
L 2053 4666 
Q 2853 4666 3247 4331 
Q 3641 3997 3641 3322 
Q 3641 2881 3436 2590 
Q 3231 2300 2841 2188 
z
M 1259 4147 
L 1259 2491 
L 2053 2491 
Q 2509 2491 2742 2702 
Q 2975 2913 2975 3322 
Q 2975 3731 2742 3939 
Q 2509 4147 2053 4147 
L 1259 4147 
z
" transform="scale(0.015625)"/>
     </defs>
     <use xlink:href="#DejaVuSans-28"/>
     <use xlink:href="#DejaVuSans-50" x="39.013672"/>
     <use xlink:href="#DejaVuSans-50" x="99.316406"/>
     <use xlink:href="#DejaVuSans-4f" x="159.619141"/>
     <use xlink:href="#DejaVuSans-20" x="238.330078"/>
     <use xlink:href="#DejaVuSans-2f" x="270.117188"/>
     <use xlink:href="#DejaVuSans-20" x="303.808594"/>
     <use xlink:href="#DejaVuSans-47" x="335.595703"/>
     <use xlink:href="#DejaVuSans-52" x="413.085938"/>
     <use xlink:href="#DejaVuSans-50" x="482.568359"/>
     <use xlink:href="#DejaVuSans-4f" x="542.871094"/>
     <use xlink:href="#DejaVuSans-29" x="621.582031"/>
    </g>
   </g>
   <g id="patch_25">
    <path d="M 567.799453 192.153596 
Q 567.799453 201.587486 567.799453 209.903343 
" style="fill: none; stroke: #37474f; stroke-linecap: round"/>
    <path d="M 569.799453 205.903343 
L 567.799453 209.903343 
L 565.799453 205.903343 
" style="fill: none; stroke: #37474f; stroke-linecap: round"/>
   </g>
   <g id="text_19">
    <!-- Constraint-projection composition: scorers pass through the layer before reaching the optimizer. -->
    <g style="fill: #37474f" transform="translate(92.370547 296.954406) scale(0.095 -0.095)">
     <defs>
      <path id="DejaVuSans-Oblique-43" d="M 4447 4306 
L 4319 3641 
Q 4019 3944 3683 4091 
Q 3347 4238 2956 4238 
Q 2422 4238 2017 3981 
Q 1613 3725 1319 3200 
Q 1131 2863 1032 2486 
Q 934 2109 934 1728 
Q 934 1091 1264 756 
Q 1594 422 2222 422 
Q 2656 422 3056 561 
Q 3456 700 3834 978 
L 3688 231 
Q 3316 72 2936 -9 
Q 2556 -91 2175 -91 
Q 1278 -91 773 396 
Q 269 884 269 1753 
Q 269 2309 461 2846 
Q 653 3384 1013 3828 
Q 1394 4300 1883 4525 
Q 2372 4750 3022 4750 
Q 3422 4750 3780 4639 
Q 4138 4528 4447 4306 
z
" transform="scale(0.015625)"/>
      <path id="DejaVuSans-Oblique-6f" d="M 1625 -91 
Q 1009 -91 651 289 
Q 294 669 294 1325 
Q 294 1706 417 2101 
Q 541 2497 738 2766 
Q 1047 3184 1428 3384 
Q 1809 3584 2291 3584 
Q 2888 3584 3255 3212 
Q 3622 2841 3622 2241 
Q 3622 1825 3500 1412 
Q 3378 1000 3181 728 
Q 2875 309 2494 109 
Q 2113 -91 1625 -91 
z
M 891 1344 
Q 891 869 1089 633 
Q 1288 397 1691 397 
Q 2269 397 2648 901 
Q 3028 1406 3028 2181 
Q 3028 2634 2825 2865 
Q 2622 3097 2228 3097 
Q 1903 3097 1650 2945 
Q 1397 2794 1197 2484 
Q 1050 2253 970 1956 
Q 891 1659 891 1344 
z
" transform="scale(0.015625)"/>
      <path id="DejaVuSans-Oblique-6e" d="M 3566 2113 
L 3156 0 
L 2578 0 
L 2988 2091 
Q 3016 2238 3031 2350 
Q 3047 2463 3047 2528 
Q 3047 2791 2881 2937 
Q 2716 3084 2419 3084 
Q 1956 3084 1622 2776 
Q 1288 2469 1184 1941 
L 800 0 
L 225 0 
L 903 3500 
L 1478 3500 
L 1363 2950 
Q 1603 3253 1940 3418 
Q 2278 3584 2650 3584 
Q 3113 3584 3367 3334 
Q 3622 3084 3622 2631 
Q 3622 2519 3608 2391 
Q 3594 2263 3566 2113 
z
" transform="scale(0.015625)"/>
      <path id="DejaVuSans-Oblique-74" d="M 2706 3500 
L 2619 3053 
L 1472 3053 
L 1100 1153 
Q 1081 1047 1072 975 
Q 1063 903 1063 863 
Q 1063 663 1183 572 
Q 1303 481 1569 481 
L 2150 481 
L 2053 0 
L 1503 0 
Q 991 0 739 200 
Q 488 400 488 806 
Q 488 878 497 964 
Q 506 1050 525 1153 
L 897 3053 
L 409 3053 
L 500 3500 
L 978 3500 
L 1172 4494 
L 1747 4494 
L 1556 3500 
L 2706 3500 
z
" transform="scale(0.015625)"/>
      <path id="DejaVuSans-Oblique-72" d="M 2853 2969 
Q 2766 3016 2653 3041 
Q 2541 3066 2413 3066 
Q 1953 3066 1609 2717 
Q 1266 2369 1153 1784 
L 800 0 
L 225 0 
L 909 3500 
L 1484 3500 
L 1375 2956 
Q 1603 3259 1920 3421 
Q 2238 3584 2597 3584 
Q 2691 3584 2781 3573 
Q 2872 3563 2963 3538 
L 2853 2969 
z
" transform="scale(0.015625)"/>
      <path id="DejaVuSans-Oblique-61" d="M 3438 1997 
L 3047 0 
L 2472 0 
L 2578 531 
Q 2325 219 2001 64 
Q 1678 -91 1281 -91 
Q 834 -91 548 182 
Q 263 456 263 884 
Q 263 1497 752 1853 
Q 1241 2209 2100 2209 
L 2900 2209 
L 2931 2363 
Q 2938 2388 2941 2417 
Q 2944 2447 2944 2509 
Q 2944 2788 2717 2942 
Q 2491 3097 2081 3097 
Q 1800 3097 1504 3025 
Q 1209 2953 897 2809 
L 997 3341 
Q 1322 3463 1633 3523 
Q 1944 3584 2234 3584 
Q 2853 3584 3176 3315 
Q 3500 3047 3500 2534 
Q 3500 2431 3484 2292 
Q 3469 2153 3438 1997 
z
M 2816 1759 
L 2241 1759 
Q 1534 1759 1195 1570 
Q 856 1381 856 984 
Q 856 709 1029 553 
Q 1203 397 1509 397 
Q 1978 397 2328 733 
Q 2678 1069 2791 1631 
L 2816 1759 
z
" transform="scale(0.015625)"/>
      <path id="DejaVuSans-Oblique-69" d="M 1172 4863 
L 1747 4863 
L 1606 4134 
L 1031 4134 
L 1172 4863 
z
M 909 3500 
L 1484 3500 
L 800 0 
L 225 0 
L 909 3500 
z
" transform="scale(0.015625)"/>
      <path id="DejaVuSans-Oblique-2d" d="M 391 2009 
L 2075 2009 
L 1978 1497 
L 288 1497 
L 391 2009 
z
" transform="scale(0.015625)"/>
      <path id="DejaVuSans-Oblique-70" d="M 3175 2156 
Q 3175 2616 2975 2859 
Q 2775 3103 2400 3103 
Q 2144 3103 1911 2972 
Q 1678 2841 1497 2591 
Q 1319 2344 1212 1994 
Q 1106 1644 1106 1300 
Q 1106 863 1306 627 
Q 1506 391 1875 391 
Q 2147 391 2380 519 
Q 2613 647 2778 891 
Q 2956 1147 3065 1494 
Q 3175 1841 3175 2156 
z
M 1394 2969 
Q 1625 3272 1939 3428 
Q 2253 3584 2638 3584 
Q 3175 3584 3472 3232 
Q 3769 2881 3769 2247 
Q 3769 1728 3584 1258 
Q 3400 788 3053 416 
Q 2822 169 2531 39 
Q 2241 -91 1919 -91 
Q 1547 -91 1294 64 
Q 1041 219 916 525 
L 556 -1331 
L -19 -1331 
L 922 3500 
L 1497 3500 
L 1394 2969 
z
" transform="scale(0.015625)"/>
      <path id="DejaVuSans-Oblique-6a" d="M 928 3500 
L 1503 3500 
L 813 -63 
L 809 -78 
Q 694 -675 544 -897 
Q 403 -1106 132 -1218 
Q -138 -1331 -506 -1331 
L -722 -1331 
L -628 -844 
L -481 -844 
Q -144 -844 -1 -703 
Q 141 -563 238 -63 
L 928 3500 
z
M 1197 4863 
L 1772 4863 
L 1631 4134 
L 1056 4134 
L 1197 4863 
z
" transform="scale(0.015625)"/>
      <path id="DejaVuSans-Oblique-65" d="M 3078 2063 
Q 3088 2113 3092 2166 
Q 3097 2219 3097 2272 
Q 3097 2653 2873 2875 
Q 2650 3097 2266 3097 
Q 1838 3097 1509 2826 
Q 1181 2556 1013 2059 
L 3078 2063 
z
M 3578 1613 
L 903 1613 
Q 884 1494 878 1425 
Q 872 1356 872 1306 
Q 872 872 1139 634 
Q 1406 397 1894 397 
Q 2269 397 2603 481 
Q 2938 566 3225 728 
L 3116 159 
Q 2806 34 2476 -28 
Q 2147 -91 1806 -91 
Q 1078 -91 686 257 
Q 294 606 294 1247 
Q 294 1794 489 2264 
Q 684 2734 1063 3103 
Q 1306 3334 1642 3459 
Q 1978 3584 2356 3584 
Q 2950 3584 3301 3228 
Q 3653 2872 3653 2272 
Q 3653 2128 3634 1964 
Q 3616 1800 3578 1613 
z
" transform="scale(0.015625)"/>
      <path id="DejaVuSans-Oblique-20" transform="scale(0.015625)"/>
      <path id="DejaVuSans-Oblique-6d" d="M 5747 2113 
L 5338 0 
L 4763 0 
L 5166 2094 
Q 5191 2228 5203 2325 
Q 5216 2422 5216 2491 
Q 5216 2772 5059 2928 
Q 4903 3084 4622 3084 
Q 4203 3084 3875 2770 
Q 3547 2456 3450 1953 
L 3066 0 
L 2491 0 
L 2900 2094 
Q 2925 2209 2937 2307 
Q 2950 2406 2950 2484 
Q 2950 2769 2794 2926 
Q 2638 3084 2363 3084 
Q 1938 3084 1609 2770 
Q 1281 2456 1184 1953 
L 800 0 
L 225 0 
L 909 3500 
L 1484 3500 
L 1375 2956 
Q 1609 3263 1923 3423 
Q 2238 3584 2597 3584 
Q 2978 3584 3223 3384 
Q 3469 3184 3519 2828 
Q 3781 3197 4126 3390 
Q 4472 3584 4856 3584 
Q 5306 3584 5551 3325 
Q 5797 3066 5797 2591 
Q 5797 2488 5784 2364 
Q 5772 2241 5747 2113 
z
" transform="scale(0.015625)"/>
      <path id="DejaVuSans-Oblique-3a" d="M 978 3309 
L 1638 3309 
L 1484 2516 
L 825 2516 
L 978 3309 
z
M 488 794 
L 1147 794 
L 991 0 
L 331 0 
L 488 794 
z
" transform="scale(0.015625)"/>
      <path id="DejaVuSans-Oblique-68" d="M 3566 2113 
L 3156 0 
L 2578 0 
L 2988 2091 
Q 3016 2238 3031 2350 
Q 3047 2463 3047 2528 
Q 3047 2791 2881 2937 
Q 2716 3084 2419 3084 
Q 1956 3084 1617 2771 
Q 1278 2459 1178 1941 
L 800 0 
L 225 0 
L 1172 4863 
L 1747 4863 
L 1375 2950 
Q 1594 3244 1934 3414 
Q 2275 3584 2650 3584 
Q 3113 3584 3367 3334 
Q 3622 3084 3622 2631 
Q 3622 2519 3608 2391 
Q 3594 2263 3566 2113 
z
" transform="scale(0.015625)"/>
      <path id="DejaVuSans-Oblique-75" d="M 428 1388 
L 838 3500 
L 1416 3500 
L 1006 1409 
Q 975 1256 961 1147 
Q 947 1038 947 966 
Q 947 700 1109 554 
Q 1272 409 1569 409 
Q 2031 409 2368 721 
Q 2706 1034 2809 1563 
L 3194 3500 
L 3769 3500 
L 3091 0 
L 2516 0 
L 2631 550 
Q 2388 244 2052 76 
Q 1716 -91 1338 -91 
Q 878 -91 622 161 
Q 366 413 366 863 
Q 366 956 381 1097 
Q 397 1238 428 1388 
z
" transform="scale(0.015625)"/>
      <path id="DejaVuSans-Oblique-6c" d="M 1172 4863 
L 1747 4863 
L 800 0 
L 225 0 
L 1172 4863 
z
" transform="scale(0.015625)"/>
      <path id="DejaVuSans-Oblique-79" d="M 1588 -325 
Q 1188 -997 936 -1164 
Q 684 -1331 294 -1331 
L -159 -1331 
L -63 -850 
L 269 -850 
Q 509 -850 678 -719 
Q 847 -588 1056 -206 
L 1234 128 
L 459 3500 
L 1069 3500 
L 1650 819 
L 3256 3500 
L 3859 3500 
L 1588 -325 
z
" transform="scale(0.015625)"/>
      <path id="DejaVuSans-Oblique-62" d="M 3169 2138 
Q 3169 2591 2961 2847 
Q 2753 3103 2388 3103 
Q 2122 3103 1889 2973 
Q 1656 2844 1484 2597 
Q 1303 2338 1198 1995 
Q 1094 1653 1094 1313 
Q 1094 881 1298 636 
Q 1503 391 1863 391 
Q 2134 391 2365 517 
Q 2597 644 2772 891 
Q 2950 1147 3059 1487 
Q 3169 1828 3169 2138 
z
M 1381 2969 
Q 1594 3256 1914 3420 
Q 2234 3584 2584 3584 
Q 3122 3584 3439 3221 
Q 3756 2859 3756 2241 
Q 3756 1734 3570 1259 
Q 3384 784 3041 416 
Q 2816 172 2522 40 
Q 2228 -91 1906 -91 
Q 1566 -91 1316 65 
Q 1066 222 909 531 
L 806 0 
L 231 0 
L 1178 4863 
L 1753 4863 
L 1381 2969 
z
" transform="scale(0.015625)"/>
      <path id="DejaVuSans-Oblique-66" d="M 3059 4863 
L 2969 4384 
L 2419 4384 
Q 2106 4384 1964 4261 
Q 1822 4138 1753 3809 
L 1691 3500 
L 2638 3500 
L 2553 3053 
L 1606 3053 
L 1013 0 
L 434 0 
L 1031 3053 
L 481 3053 
L 563 3500 
L 1113 3500 
L 1159 3744 
Q 1278 4363 1576 4613 
Q 1875 4863 2516 4863 
L 3059 4863 
z
" transform="scale(0.015625)"/>
      <path id="DejaVuSans-Oblique-7a" d="M 744 3500 
L 3475 3500 
L 3372 2975 
L 738 459 
L 2913 459 
L 2822 0 
L -19 0 
L 84 525 
L 2719 3041 
L 653 3041 
L 744 3500 
z
" transform="scale(0.015625)"/>
      <path id="DejaVuSans-Oblique-2e" d="M 525 794 
L 1184 794 
L 1031 0 
L 372 0 
L 525 794 
z
" transform="scale(0.015625)"/>
     </defs>
     <use xlink:href="#DejaVuSans-Oblique-43"/>
     <use xlink:href="#DejaVuSans-Oblique-6f" x="69.824219"/>
     <use xlink:href="#DejaVuSans-Oblique-6e" x="131.005859"/>
     <use xlink:href="#DejaVuSans-Oblique-73" x="194.384766"/>
     <use xlink:href="#DejaVuSans-Oblique-74" x="246.484375"/>
     <use xlink:href="#DejaVuSans-Oblique-72" x="285.693359"/>
     <use xlink:href="#DejaVuSans-Oblique-61" x="326.806641"/>
     <use xlink:href="#DejaVuSans-Oblique-69" x="388.085938"/>
     <use xlink:href="#DejaVuSans-Oblique-6e" x="415.869141"/>
     <use xlink:href="#DejaVuSans-Oblique-74" x="479.248047"/>
     <use xlink:href="#DejaVuSans-Oblique-2d" x="518.457031"/>
     <use xlink:href="#DejaVuSans-Oblique-70" x="554.541016"/>
     <use xlink:href="#DejaVuSans-Oblique-72" x="618.017578"/>
     <use xlink:href="#DejaVuSans-Oblique-6f" x="659.130859"/>
     <use xlink:href="#DejaVuSans-Oblique-6a" x="720.3125"/>
     <use xlink:href="#DejaVuSans-Oblique-65" x="748.095703"/>
     <use xlink:href="#DejaVuSans-Oblique-63" x="809.619141"/>
     <use xlink:href="#DejaVuSans-Oblique-74" x="864.599609"/>
     <use xlink:href="#DejaVuSans-Oblique-69" x="903.808594"/>
     <use xlink:href="#DejaVuSans-Oblique-6f" x="931.591797"/>
     <use xlink:href="#DejaVuSans-Oblique-6e" x="992.773438"/>
     <use xlink:href="#DejaVuSans-Oblique-20" x="1056.152344"/>
     <use xlink:href="#DejaVuSans-Oblique-63" x="1087.939453"/>
     <use xlink:href="#DejaVuSans-Oblique-6f" x="1142.919922"/>
     <use xlink:href="#DejaVuSans-Oblique-6d" x="1204.101562"/>
     <use xlink:href="#DejaVuSans-Oblique-70" x="1301.513672"/>
     <use xlink:href="#DejaVuSans-Oblique-6f" x="1364.990234"/>
     <use xlink:href="#DejaVuSans-Oblique-73" x="1426.171875"/>
     <use xlink:href="#DejaVuSans-Oblique-69" x="1478.271484"/>
     <use xlink:href="#DejaVuSans-Oblique-74" x="1506.054688"/>
     <use xlink:href="#DejaVuSans-Oblique-69" x="1545.263672"/>
     <use xlink:href="#DejaVuSans-Oblique-6f" x="1573.046875"/>
     <use xlink:href="#DejaVuSans-Oblique-6e" x="1634.228516"/>
     <use xlink:href="#DejaVuSans-Oblique-3a" x="1697.607422"/>
     <use xlink:href="#DejaVuSans-Oblique-20" x="1731.298828"/>
     <use xlink:href="#DejaVuSans-Oblique-73" x="1763.085938"/>
     <use xlink:href="#DejaVuSans-Oblique-63" x="1815.185547"/>
     <use xlink:href="#DejaVuSans-Oblique-6f" x="1870.166016"/>
     <use xlink:href="#DejaVuSans-Oblique-72" x="1931.347656"/>
     <use xlink:href="#DejaVuSans-Oblique-65" x="1972.460938"/>
     <use xlink:href="#DejaVuSans-Oblique-72" x="2033.984375"/>
     <use xlink:href="#DejaVuSans-Oblique-73" x="2075.097656"/>
     <use xlink:href="#DejaVuSans-Oblique-20" x="2127.197266"/>
     <use xlink:href="#DejaVuSans-Oblique-70" x="2158.984375"/>
     <use xlink:href="#DejaVuSans-Oblique-61" x="2222.460938"/>
     <use xlink:href="#DejaVuSans-Oblique-73" x="2283.740234"/>
     <use xlink:href="#DejaVuSans-Oblique-73" x="2335.839844"/>
     <use xlink:href="#DejaVuSans-Oblique-20" x="2387.939453"/>
     <use xlink:href="#DejaVuSans-Oblique-74" x="2419.726562"/>
     <use xlink:href="#DejaVuSans-Oblique-68" x="2458.935547"/>
     <use xlink:href="#DejaVuSans-Oblique-72" x="2522.314453"/>
     <use xlink:href="#DejaVuSans-Oblique-6f" x="2563.427734"/>
     <use xlink:href="#DejaVuSans-Oblique-75" x="2624.609375"/>
     <use xlink:href="#DejaVuSans-Oblique-67" x="2687.988281"/>
     <use xlink:href="#DejaVuSans-Oblique-68" x="2751.464844"/>
     <use xlink:href="#DejaVuSans-Oblique-20" x="2814.84375"/>
     <use xlink:href="#DejaVuSans-Oblique-74" x="2846.630859"/>
     <use xlink:href="#DejaVuSans-Oblique-68" x="2885.839844"/>
     <use xlink:href="#DejaVuSans-Oblique-65" x="2949.21875"/>
     <use xlink:href="#DejaVuSans-Oblique-20" x="3010.742188"/>
     <use xlink:href="#DejaVuSans-Oblique-6c" x="3042.529297"/>
     <use xlink:href="#DejaVuSans-Oblique-61" x="3070.3125"/>
     <use xlink:href="#DejaVuSans-Oblique-79" x="3131.591797"/>
     <use xlink:href="#DejaVuSans-Oblique-65" x="3190.771484"/>
     <use xlink:href="#DejaVuSans-Oblique-72" x="3252.294922"/>
     <use xlink:href="#DejaVuSans-Oblique-20" x="3293.408203"/>
     <use xlink:href="#DejaVuSans-Oblique-62" x="3325.195312"/>
     <use xlink:href="#DejaVuSans-Oblique-65" x="3388.671875"/>
     <use xlink:href="#DejaVuSans-Oblique-66" x="3450.195312"/>
     <use xlink:href="#DejaVuSans-Oblique-6f" x="3485.400391"/>
     <use xlink:href="#DejaVuSans-Oblique-72" x="3546.582031"/>
     <use xlink:href="#DejaVuSans-Oblique-65" x="3587.695312"/>
     <use xlink:href="#DejaVuSans-Oblique-20" x="3649.21875"/>
     <use xlink:href="#DejaVuSans-Oblique-72" x="3681.005859"/>
     <use xlink:href="#DejaVuSans-Oblique-65" x="3722.119141"/>
     <use xlink:href="#DejaVuSans-Oblique-61" x="3783.642578"/>
     <use xlink:href="#DejaVuSans-Oblique-63" x="3844.921875"/>
     <use xlink:href="#DejaVuSans-Oblique-68" x="3899.902344"/>
     <use xlink:href="#DejaVuSans-Oblique-69" x="3963.28125"/>
     <use xlink:href="#DejaVuSans-Oblique-6e" x="3991.064453"/>
     <use xlink:href="#DejaVuSans-Oblique-67" x="4054.443359"/>
     <use xlink:href="#DejaVuSans-Oblique-20" x="4117.919922"/>
     <use xlink:href="#DejaVuSans-Oblique-74" x="4149.707031"/>
     <use xlink:href="#DejaVuSans-Oblique-68" x="4188.916016"/>
     <use xlink:href="#DejaVuSans-Oblique-65" x="4252.294922"/>
     <use xlink:href="#DejaVuSans-Oblique-20" x="4313.818359"/>
     <use xlink:href="#DejaVuSans-Oblique-6f" x="4345.605469"/>
     <use xlink:href="#DejaVuSans-Oblique-70" x="4406.787109"/>
     <use xlink:href="#DejaVuSans-Oblique-74" x="4470.263672"/>
     <use xlink:href="#DejaVuSans-Oblique-69" x="4509.472656"/>
     <use xlink:href="#DejaVuSans-Oblique-6d" x="4537.255859"/>
     <use xlink:href="#DejaVuSans-Oblique-69" x="4634.667969"/>
     <use xlink:href="#DejaVuSans-Oblique-7a" x="4662.451172"/>
     <use xlink:href="#DejaVuSans-Oblique-65" x="4714.941406"/>
     <use xlink:href="#DejaVuSans-Oblique-72" x="4776.464844"/>
     <use xlink:href="#DejaVuSans-Oblique-2e" x="4808.453125"/>
    </g>
   </g>
  </g>
 </g>
 <defs>
  <clipPath id="pc640b64611">
   <rect x="15.379453" y="7.2" width="613.8" height="304.92"/>
  </clipPath>
 </defs>
</svg>
